<svg width="314" height="33" viewBox="0 0 314 33" fill="none" xmlns="http://www.w3.org/2000/svg">
<path d="M7.24002 4.43999C11.56 4.43999 15.0134 5.42666 17.6 7.39999C20.2134 9.34666 21.52 12.9333 21.52 18.16C21.52 23.28 20.24 26.8933 17.68 29C15.1467 31.08 11.8934 32.12 7.92002 32.12H1.7345e-05V4.43999H7.24002ZM5.88002 8.75999V27.8H8.28002C10.5467 27.8 12.2934 27.1067 13.52 25.72C14.7734 24.3067 15.4 21.7867 15.4 18.16C15.4 15.6533 15.08 13.7067 14.44 12.32C13.8267 10.9333 13 9.99999 11.96 9.52C10.92 9.01333 9.65335 8.75999 8.16002 8.75999H5.88002ZM30.5756 10.92V32.12H24.8956V10.92H30.5756ZM27.6956 -6.19888e-06C28.709 -6.19888e-06 29.5356 0.319994 30.1756 0.959993C30.8423 1.57333 31.1756 2.35999 31.1756 3.31999C31.1756 4.27999 30.8423 5.07999 30.1756 5.71999C29.5356 6.33333 28.709 6.63999 27.6956 6.63999C26.6823 6.63999 25.8556 6.33333 25.2156 5.71999C24.5756 5.07999 24.2556 4.27999 24.2556 3.31999C24.2556 2.35999 24.5756 1.57333 25.2156 0.959993C25.8556 0.319994 26.6823 -6.19888e-06 27.6956 -6.19888e-06ZM42.2247 10.28C45.2114 10.28 47.7714 11.1333 49.9047 12.84L47.7447 16.08C45.958 14.96 44.198 14.4 42.4647 14.4C41.5314 14.4 40.8114 14.5733 40.3047 14.92C39.798 15.2667 39.5447 15.7333 39.5447 16.32C39.5447 16.7467 39.6514 17.1067 39.8647 17.4C40.1047 17.6933 40.5314 17.9733 41.1447 18.24C41.7847 18.5067 42.7314 18.8267 43.9847 19.2C46.2247 19.8133 47.8914 20.64 48.9847 21.68C50.078 22.6933 50.6247 24.0933 50.6247 25.88C50.6247 27.2933 50.2114 28.52 49.3847 29.56C48.5847 30.6 47.4914 31.4 46.1047 31.96C44.718 32.4933 43.1714 32.76 41.4647 32.76C39.678 32.76 38.0514 32.4933 36.5847 31.96C35.118 31.4 33.8647 30.64 32.8247 29.68L35.6247 26.56C37.4114 27.9467 39.3047 28.64 41.3047 28.64C42.3714 28.64 43.2114 28.44 43.8247 28.04C44.4647 27.6133 44.7847 27.04 44.7847 26.32C44.7847 25.76 44.6647 25.32 44.4247 25C44.1847 24.68 43.7447 24.3867 43.1047 24.12C42.4647 23.8267 41.4647 23.4933 40.1047 23.12C37.9714 22.5333 36.3847 21.7067 35.3447 20.64C34.3314 19.5467 33.8247 18.2 33.8247 16.6C33.8247 15.4 34.1714 14.32 34.8647 13.36C35.558 12.4 36.5314 11.6533 37.7847 11.12C39.0647 10.56 40.5447 10.28 42.2247 10.28ZM62.1653 10.28C63.5787 10.28 64.8453 10.4933 65.9653 10.92C67.112 11.32 68.192 11.96 69.2053 12.84L66.7253 16.2C66.032 15.6667 65.352 15.28 64.6853 15.04C64.0453 14.8 63.3387 14.68 62.5653 14.68C59.552 14.68 58.0453 17 58.0453 21.64C58.0453 23.9867 58.432 25.6667 59.2053 26.68C59.9787 27.6933 61.0853 28.2 62.5253 28.2C63.272 28.2 63.952 28.0933 64.5653 27.88C65.1787 27.64 65.8987 27.2533 66.7253 26.72L69.2053 30.28C67.1787 31.9333 64.8587 32.76 62.2453 32.76C60.1653 32.76 58.352 32.3067 56.8053 31.4C55.2853 30.4933 54.112 29.2133 53.2853 27.56C52.4587 25.88 52.0453 23.92 52.0453 21.68C52.0453 19.44 52.4587 17.4667 53.2853 15.76C54.112 14.0267 55.2853 12.68 56.8053 11.72C58.352 10.76 60.1387 10.28 62.1653 10.28ZM79.5656 10.28C82.739 10.28 85.219 11.28 87.0056 13.28C88.7923 15.2533 89.6856 18 89.6856 21.52C89.6856 23.76 89.2723 25.7333 88.4456 27.44C87.6456 29.12 86.4723 30.4267 84.9256 31.36C83.4056 32.2933 81.6056 32.76 79.5256 32.76C76.3523 32.76 73.859 31.7733 72.0456 29.8C70.259 27.8 69.3656 25.04 69.3656 21.52C69.3656 19.28 69.7656 17.32 70.5656 15.64C71.3923 13.9333 72.5656 12.6133 74.0856 11.68C75.6323 10.7467 77.459 10.28 79.5656 10.28ZM79.5656 14.52C78.1256 14.52 77.0456 15.0933 76.3256 16.24C75.6323 17.36 75.2856 19.12 75.2856 21.52C75.2856 23.92 75.6323 25.6933 76.3256 26.84C77.0456 27.96 78.1123 28.52 79.5256 28.52C80.939 28.52 81.9923 27.96 82.6856 26.84C83.4056 25.6933 83.7656 23.92 83.7656 21.52C83.7656 19.12 83.419 17.36 82.7256 16.24C82.0323 15.0933 80.979 14.52 79.5656 14.52ZM110.332 10.92L103.532 32.12H96.7716L89.8516 10.92H96.0116L100.212 27.68L104.492 10.92H110.332ZM129.691 21.04C129.691 21.3067 129.651 22.04 129.571 23.24H116.331C116.517 25.16 117.037 26.52 117.891 27.32C118.744 28.12 119.904 28.52 121.371 28.52C122.277 28.52 123.131 28.3733 123.931 28.08C124.731 27.7867 125.597 27.32 126.531 26.68L128.891 29.88C126.517 31.8 123.837 32.76 120.851 32.76C117.517 32.76 114.957 31.76 113.171 29.76C111.384 27.76 110.491 25.0533 110.491 21.64C110.491 19.48 110.864 17.5467 111.611 15.84C112.384 14.1067 113.491 12.7467 114.931 11.76C116.397 10.7733 118.131 10.28 120.131 10.28C123.144 10.28 125.491 11.2267 127.171 13.12C128.851 15.0133 129.691 17.6533 129.691 21.04ZM124.051 19.44C124.051 15.92 122.784 14.16 120.251 14.16C119.077 14.16 118.157 14.6 117.491 15.48C116.851 16.3333 116.464 17.7333 116.331 19.68H124.051V19.44ZM143.762 10.32C144.402 10.32 145.109 10.4267 145.882 10.64L144.922 16.12C144.175 15.9333 143.549 15.84 143.042 15.84C141.789 15.84 140.815 16.28 140.122 17.16C139.429 18.04 138.882 19.3733 138.482 21.16V32.12H132.802V10.92H137.722L138.242 15.04C138.749 13.5467 139.482 12.3867 140.442 11.56C141.429 10.7333 142.535 10.32 143.762 10.32ZM165.386 10.28C168.559 10.28 171.039 11.28 172.826 13.28C174.613 15.2533 175.506 18 175.506 21.52C175.506 23.76 175.093 25.7333 174.266 27.44C173.466 29.12 172.293 30.4267 170.746 31.36C169.226 32.2933 167.426 32.76 165.346 32.76C162.173 32.76 159.679 31.7733 157.866 29.8C156.079 27.8 155.186 25.04 155.186 21.52C155.186 19.28 155.586 17.32 156.386 15.64C157.213 13.9333 158.386 12.6133 159.906 11.68C161.453 10.7467 163.279 10.28 165.386 10.28ZM165.386 14.52C163.946 14.52 162.866 15.0933 162.146 16.24C161.453 17.36 161.106 19.12 161.106 21.52C161.106 23.92 161.453 25.6933 162.146 26.84C162.866 27.96 163.933 28.52 165.346 28.52C166.759 28.52 167.813 27.96 168.506 26.84C169.226 25.6933 169.586 23.92 169.586 21.52C169.586 19.12 169.239 17.36 168.546 16.24C167.853 15.0933 166.799 14.52 165.386 14.52ZM196.185 32.12H191.265L190.985 29.28C190.239 30.4533 189.332 31.3333 188.265 31.92C187.199 32.48 185.959 32.76 184.545 32.76C182.625 32.76 181.159 32.1867 180.145 31.04C179.132 29.8667 178.625 28.24 178.625 26.16V10.92H184.305V25.44C184.305 26.56 184.492 27.36 184.865 27.84C185.239 28.2933 185.825 28.52 186.625 28.52C188.145 28.52 189.439 27.6 190.505 25.76V10.92H196.185V32.12ZM211.754 10.32C212.394 10.32 213.101 10.4267 213.874 10.64L212.914 16.12C212.167 15.9333 211.541 15.84 211.034 15.84C209.781 15.84 208.807 16.28 208.114 17.16C207.421 18.04 206.874 19.3733 206.474 21.16V32.12H200.794V10.92H205.714L206.234 15.04C206.741 13.5467 207.474 12.3867 208.434 11.56C209.421 10.7333 210.527 10.32 211.754 10.32ZM254.778 4.43999L249.938 32.12H242.298L238.458 10.48L234.418 32.12H226.978L222.178 4.43999H228.058L231.218 27.56L235.418 4.43999H241.618L245.658 27.56L249.218 4.43999H254.778ZM265.659 10.28C268.833 10.28 271.313 11.28 273.099 13.28C274.886 15.2533 275.779 18 275.779 21.52C275.779 23.76 275.366 25.7333 274.539 27.44C273.739 29.12 272.566 30.4267 271.019 31.36C269.499 32.2933 267.699 32.76 265.619 32.76C262.446 32.76 259.953 31.7733 258.139 29.8C256.353 27.8 255.459 25.04 255.459 21.52C255.459 19.28 255.859 17.32 256.659 15.64C257.486 13.9333 258.659 12.6133 260.179 11.68C261.726 10.7467 263.553 10.28 265.659 10.28ZM265.659 14.52C264.219 14.52 263.139 15.0933 262.419 16.24C261.726 17.36 261.379 19.12 261.379 21.52C261.379 23.92 261.726 25.6933 262.419 26.84C263.139 27.96 264.206 28.52 265.619 28.52C267.033 28.52 268.086 27.96 268.779 26.84C269.499 25.6933 269.859 23.92 269.859 21.52C269.859 19.12 269.513 17.36 268.819 16.24C268.126 15.0933 267.073 14.52 265.659 14.52ZM290.059 10.32C290.699 10.32 291.405 10.4267 292.179 10.64L291.219 16.12C290.472 15.9333 289.845 15.84 289.339 15.84C288.085 15.84 287.112 16.28 286.419 17.16C285.725 18.04 285.179 19.3733 284.779 21.16V32.12H279.099V10.92H284.019L284.539 15.04C285.045 13.5467 285.779 12.3867 286.739 11.56C287.725 10.7333 288.832 10.32 290.059 10.32ZM299.677 1.83999V32.12H293.997V2.47999L299.677 1.83999ZM312.557 10.92L305.797 20.24L313.157 32.12H306.717L299.877 20.52L306.677 10.92H312.557Z" fill="#222222"/>
</svg>
