<svg width="206" height="40" viewBox="0 0 206 40" fill="none" xmlns="http://www.w3.org/2000/svg">
<rect width="206" height="40" fill="#C6B393"/>
<path d="M29.2471 15.116C29.9285 15.116 30.5211 15.214 31.0251 15.41C31.5291 15.606 32.0005 15.9047 32.4391 16.306L31.5291 17.356C31.1838 17.0667 30.8338 16.8567 30.4791 16.726C30.1338 16.5953 29.7605 16.53 29.3591 16.53C28.9111 16.53 28.5471 16.6327 28.2671 16.838C27.9965 17.034 27.8611 17.314 27.8611 17.678C27.8611 17.9207 27.9125 18.1213 28.0151 18.28C28.1271 18.4387 28.3231 18.588 28.6031 18.728C28.8831 18.868 29.2985 19.022 29.8491 19.19C30.8011 19.4887 31.5151 19.862 31.9911 20.31C32.4765 20.7487 32.7191 21.3927 32.7191 22.242C32.7191 22.8207 32.5698 23.334 32.2711 23.782C31.9818 24.23 31.5618 24.58 31.0111 24.832C30.4605 25.084 29.8071 25.21 29.0511 25.21C28.3138 25.21 27.6511 25.0933 27.0631 24.86C26.4845 24.6173 25.9851 24.2907 25.5651 23.88L26.5171 22.816C26.8905 23.1333 27.2778 23.376 27.6791 23.544C28.0805 23.7027 28.5238 23.782 29.0091 23.782C29.5411 23.782 29.9705 23.656 30.2971 23.404C30.6238 23.152 30.7871 22.7973 30.7871 22.34C30.7871 22.06 30.7311 21.8313 30.6191 21.654C30.5071 21.4673 30.3158 21.304 30.0451 21.164C29.7745 21.0147 29.3825 20.8607 28.8691 20.702C27.8425 20.3847 27.1005 20.002 26.6431 19.554C26.1858 19.106 25.9571 18.518 25.9571 17.79C25.9571 17.258 26.0971 16.7913 26.3771 16.39C26.6571 15.9887 27.0445 15.676 27.5391 15.452C28.0431 15.228 28.6125 15.116 29.2471 15.116ZM43.9091 15.326L43.7131 16.698H40.1431V19.4H43.2511V20.772H40.1431V23.614H43.9651V25H38.2951V15.326H43.9091ZM55.333 15.326L55.137 16.698H51.567V19.4H54.675V20.772H51.567V23.614H55.389V25H49.719V15.326H55.333ZM72.3528 15.116C73.2208 15.116 73.9721 15.312 74.6068 15.704C75.2415 16.096 75.7268 16.67 76.0628 17.426C76.4081 18.182 76.5808 19.092 76.5808 20.156C76.5808 21.2107 76.4081 22.116 76.0628 22.872C75.7175 23.628 75.2275 24.2067 74.5928 24.608C73.9581 25.0093 73.2115 25.21 72.3528 25.21C71.4848 25.21 70.7335 25.014 70.0988 24.622C69.4641 24.23 68.9741 23.656 68.6288 22.9C68.2835 22.144 68.1108 21.234 68.1108 20.17C68.1108 19.1247 68.2835 18.224 68.6288 17.468C68.9741 16.7027 69.4641 16.1193 70.0988 15.718C70.7428 15.3167 71.4941 15.116 72.3528 15.116ZM72.3528 16.53C71.6061 16.53 71.0368 16.824 70.6448 17.412C70.2528 17.9907 70.0568 18.91 70.0568 20.17C70.0568 22.5873 70.8221 23.796 72.3528 23.796C73.0995 23.796 73.6641 23.5067 74.0468 22.928C74.4388 22.3493 74.6348 21.4253 74.6348 20.156C74.6348 18.896 74.4388 17.9767 74.0468 17.398C73.6641 16.8193 73.0995 16.53 72.3528 16.53ZM89.3785 21.836C89.3785 22.4893 89.2385 23.0727 88.9585 23.586C88.6878 24.09 88.2771 24.4867 87.7265 24.776C87.1851 25.0653 86.5318 25.21 85.7665 25.21C84.6091 25.21 83.7225 24.9067 83.1065 24.3C82.4905 23.684 82.1825 22.8627 82.1825 21.836V15.326H84.0305V21.738C84.0305 22.4193 84.1705 22.928 84.4505 23.264C84.7398 23.6 85.1785 23.768 85.7665 23.768C86.3638 23.768 86.8025 23.6 87.0825 23.264C87.3718 22.928 87.5165 22.4193 87.5165 21.738V15.326H89.3785V21.836ZM98.534 21.122H97.358V25H95.51V15.326H98.394C100.951 15.326 102.23 16.2733 102.23 18.168C102.23 18.812 102.071 19.344 101.754 19.764C101.437 20.184 100.942 20.5247 100.27 20.786L102.804 25H100.676L98.534 21.122ZM97.358 19.792H98.506C99.094 19.792 99.5373 19.666 99.836 19.414C100.144 19.1527 100.298 18.7373 100.298 18.168C100.298 17.6453 100.139 17.2673 99.822 17.034C99.514 16.7913 99.024 16.67 98.352 16.67H97.358V19.792ZM125.929 15.326L124.151 25H121.743L120.273 17.286L118.761 25H116.423L114.673 15.326H116.507L117.739 23.53L119.321 15.326H121.281L122.835 23.53L124.179 15.326H125.929ZM134.995 15.116C135.863 15.116 136.615 15.312 137.249 15.704C137.884 16.096 138.369 16.67 138.705 17.426C139.051 18.182 139.223 19.092 139.223 20.156C139.223 21.2107 139.051 22.116 138.705 22.872C138.36 23.628 137.87 24.2067 137.235 24.608C136.601 25.0093 135.854 25.21 134.995 25.21C134.127 25.21 133.376 25.014 132.741 24.622C132.107 24.23 131.617 23.656 131.271 22.9C130.926 22.144 130.753 21.234 130.753 20.17C130.753 19.1247 130.926 18.224 131.271 17.468C131.617 16.7027 132.107 16.1193 132.741 15.718C133.385 15.3167 134.137 15.116 134.995 15.116ZM134.995 16.53C134.249 16.53 133.679 16.824 133.287 17.412C132.895 17.9907 132.699 18.91 132.699 20.17C132.699 22.5873 133.465 23.796 134.995 23.796C135.742 23.796 136.307 23.5067 136.689 22.928C137.081 22.3493 137.277 21.4253 137.277 20.156C137.277 18.896 137.081 17.9767 136.689 17.398C136.307 16.8193 135.742 16.53 134.995 16.53ZM147.989 21.122H146.813V25H144.965V15.326H147.849C150.406 15.326 151.685 16.2733 151.685 18.168C151.685 18.812 151.526 19.344 151.209 19.764C150.892 20.184 150.397 20.5247 149.725 20.786L152.259 25H150.131L147.989 21.122ZM146.813 19.792H147.961C148.549 19.792 148.992 19.666 149.291 19.414C149.599 19.1527 149.753 18.7373 149.753 18.168C149.753 17.6453 149.594 17.2673 149.277 17.034C148.969 16.7913 148.479 16.67 147.807 16.67H146.813V19.792ZM159.372 15.326V25H157.524V15.326H159.372ZM164.804 15.326L161.458 19.708L165.07 25H162.872L159.456 19.834L162.802 15.326H164.804ZM172.759 15.116C173.44 15.116 174.033 15.214 174.537 15.41C175.041 15.606 175.512 15.9047 175.951 16.306L175.041 17.356C174.696 17.0667 174.346 16.8567 173.991 16.726C173.646 16.5953 173.272 16.53 172.871 16.53C172.423 16.53 172.059 16.6327 171.779 16.838C171.508 17.034 171.373 17.314 171.373 17.678C171.373 17.9207 171.424 18.1213 171.527 18.28C171.639 18.4387 171.835 18.588 172.115 18.728C172.395 18.868 172.81 19.022 173.361 19.19C174.313 19.4887 175.027 19.862 175.503 20.31C175.988 20.7487 176.231 21.3927 176.231 22.242C176.231 22.8207 176.082 23.334 175.783 23.782C175.494 24.23 175.074 24.58 174.523 24.832C173.972 25.084 173.319 25.21 172.563 25.21C171.826 25.21 171.163 25.0933 170.575 24.86C169.996 24.6173 169.497 24.2907 169.077 23.88L170.029 22.816C170.402 23.1333 170.79 23.376 171.191 23.544C171.592 23.7027 172.036 23.782 172.521 23.782C173.053 23.782 173.482 23.656 173.809 23.404C174.136 23.152 174.299 22.7973 174.299 22.34C174.299 22.06 174.243 21.8313 174.131 21.654C174.019 21.4673 173.828 21.304 173.557 21.164C173.286 21.0147 172.894 20.8607 172.381 20.702C171.354 20.3847 170.612 20.002 170.155 19.554C169.698 19.106 169.469 18.518 169.469 17.79C169.469 17.258 169.609 16.7913 169.889 16.39C170.169 15.9887 170.556 15.676 171.051 15.452C171.555 15.228 172.124 15.116 172.759 15.116Z" fill="white"/>
</svg>
