<svg width="715" height="46" viewBox="0 0 715 46" fill="none" xmlns="http://www.w3.org/2000/svg">
<path opacity="0.7" d="M3.15001 1.63801V14.04H1.44001V1.63801H3.15001ZM11.4466 13.608C10.8226 14.04 10.1146 14.256 9.32261 14.256C8.51861 14.256 7.88861 14.028 7.43261 13.572C6.98861 13.104 6.76661 12.432 6.76661 11.556V5.83201H5.11061V4.55401H6.76661V2.41201L8.42261 2.21401V4.55401H10.6726L10.4926 5.83201H8.42261V11.484C8.42261 11.976 8.50661 12.336 8.67461 12.564C8.85461 12.78 9.14861 12.888 9.55661 12.888C9.92861 12.888 10.3486 12.762 10.8166 12.51L11.4466 13.608ZM22.2822 4.33801C23.4942 4.33801 24.3822 4.77001 24.9462 5.63401C25.5102 6.49801 25.7922 7.71601 25.7922 9.28801C25.7922 10.776 25.4682 11.976 24.8202 12.888C24.1722 13.8 23.2542 14.256 22.0662 14.256C21.0102 14.256 20.1822 13.896 19.5822 13.176V17.676L17.9262 17.874V4.55401H19.3482L19.4742 5.83201C19.8222 5.35201 20.2422 4.98601 20.7342 4.73401C21.2262 4.47001 21.7422 4.33801 22.2822 4.33801ZM21.6702 12.906C23.2302 12.906 24.0102 11.7 24.0102 9.28801C24.0102 6.86401 23.2962 5.65201 21.8682 5.65201C21.4002 5.65201 20.9742 5.79001 20.5902 6.06601C20.2062 6.34201 19.8702 6.69601 19.5822 7.12801V11.754C19.8222 12.126 20.1222 12.414 20.4822 12.618C20.8422 12.81 21.2382 12.906 21.6702 12.906ZM30.2697 4.55401V14.04H28.6137V4.55401H30.2697ZM29.4237 7.98702e-06C29.7717 7.98702e-06 30.0537 0.108008 30.2697 0.324008C30.4857 0.540008 30.5937 0.810008 30.5937 1.13401C30.5937 1.45801 30.4857 1.72801 30.2697 1.94401C30.0537 2.14801 29.7717 2.25001 29.4237 2.25001C29.0877 2.25001 28.8117 2.14801 28.5957 1.94401C28.3797 1.72801 28.2717 1.45801 28.2717 1.13401C28.2717 0.810008 28.3797 0.540008 28.5957 0.324008C28.8117 0.108008 29.0877 7.98702e-06 29.4237 7.98702e-06ZM37.1498 4.33801C37.7138 4.33801 38.2298 4.42201 38.6978 4.59001C39.1658 4.74601 39.6158 5.00401 40.0478 5.36401L39.2558 6.40801C38.9198 6.16801 38.5898 5.99401 38.2658 5.88601C37.9538 5.76601 37.6058 5.70601 37.2218 5.70601C36.4538 5.70601 35.8538 6.01201 35.4218 6.62401C35.0018 7.23601 34.7918 8.14201 34.7918 9.34201C34.7918 10.542 35.0018 11.43 35.4218 12.006C35.8418 12.57 36.4418 12.852 37.2218 12.852C37.5938 12.852 37.9358 12.798 38.2478 12.69C38.5598 12.57 38.9078 12.384 39.2918 12.132L40.0478 13.212C39.1838 13.908 38.2178 14.256 37.1498 14.256C35.8658 14.256 34.8518 13.824 34.1078 12.96C33.3758 12.096 33.0098 10.902 33.0098 9.37801C33.0098 8.37001 33.1778 7.48801 33.5138 6.73201C33.8498 5.97601 34.3238 5.38801 34.9358 4.96801C35.5598 4.54801 36.2978 4.33801 37.1498 4.33801ZM43.9455 0.540007V14.04H42.2895V0.738008L43.9455 0.540007ZM49.3995 4.55401L45.9075 8.74801L49.7955 14.04H47.8155L44.0535 8.85601L47.5455 4.55401H49.3995ZM53.9865 4.33801C54.6345 4.33801 55.2165 4.42801 55.7325 4.60801C56.2485 4.78801 56.7405 5.05801 57.2085 5.41801L56.5065 6.46201C56.0745 6.18601 55.6605 5.98201 55.2645 5.85001C54.8805 5.71801 54.4725 5.65201 54.0405 5.65201C53.5005 5.65201 53.0745 5.76601 52.7625 5.99401C52.4505 6.21001 52.2945 6.51001 52.2945 6.89401C52.2945 7.27801 52.4385 7.57801 52.7265 7.79401C53.0265 8.01001 53.5605 8.22001 54.3285 8.42401C55.3845 8.68801 56.1705 9.04801 56.6865 9.50401C57.2145 9.96001 57.4785 10.584 57.4785 11.376C57.4785 12.312 57.1125 13.026 56.3805 13.518C55.6605 14.01 54.7785 14.256 53.7345 14.256C52.2945 14.256 51.1005 13.842 50.1525 13.014L51.0345 12.006C51.8385 12.618 52.7265 12.924 53.6985 12.924C54.3225 12.924 54.8145 12.798 55.1745 12.546C55.5465 12.282 55.7325 11.928 55.7325 11.484C55.7325 11.16 55.6665 10.902 55.5345 10.71C55.4025 10.506 55.1745 10.332 54.8505 10.188C54.5265 10.032 54.0525 9.87001 53.4285 9.70201C52.4205 9.43801 51.6885 9.08401 51.2325 8.64001C50.7885 8.19601 50.5665 7.63201 50.5665 6.94801C50.5665 6.45601 50.7105 6.01201 50.9985 5.61601C51.2985 5.20801 51.7065 4.89601 52.2225 4.68001C52.7505 4.45201 53.3385 4.33801 53.9865 4.33801ZM71.6345 14.04H70.2125L70.0865 12.564C69.7265 13.152 69.3125 13.584 68.8445 13.86C68.3765 14.124 67.8065 14.256 67.1345 14.256C66.3065 14.256 65.6585 14.004 65.1905 13.5C64.7225 12.996 64.4885 12.282 64.4885 11.358V4.55401H66.1445V11.178C66.1445 11.826 66.2585 12.288 66.4865 12.564C66.7145 12.828 67.0865 12.96 67.6025 12.96C68.5265 12.96 69.3185 12.414 69.9785 11.322V4.55401H71.6345V14.04ZM79.4111 4.33801C80.6231 4.33801 81.5111 4.77001 82.0751 5.63401C82.6391 6.49801 82.9211 7.71601 82.9211 9.28801C82.9211 10.776 82.5971 11.976 81.9491 12.888C81.3011 13.8 80.3831 14.256 79.1951 14.256C78.1391 14.256 77.3111 13.896 76.7111 13.176V17.676L75.0551 17.874V4.55401H76.4771L76.6031 5.83201C76.9511 5.35201 77.3711 4.98601 77.8631 4.73401C78.3551 4.47001 78.8711 4.33801 79.4111 4.33801ZM78.7991 12.906C80.3591 12.906 81.1391 11.7 81.1391 9.28801C81.1391 6.86401 80.4251 5.65201 78.9971 5.65201C78.5291 5.65201 78.1031 5.79001 77.7191 6.06601C77.3351 6.34201 76.9991 6.69601 76.7111 7.12801V11.754C76.9511 12.126 77.2511 12.414 77.6111 12.618C77.9711 12.81 78.3671 12.906 78.7991 12.906ZM95.2943 13.608C94.6703 14.04 93.9623 14.256 93.1703 14.256C92.3663 14.256 91.7363 14.028 91.2803 13.572C90.8363 13.104 90.6143 12.432 90.6143 11.556V5.83201H88.9583V4.55401H90.6143V2.41201L92.2703 2.21401V4.55401H94.5203L94.3403 5.83201H92.2703V11.484C92.2703 11.976 92.3543 12.336 92.5223 12.564C92.7023 12.78 92.9963 12.888 93.4043 12.888C93.7763 12.888 94.1963 12.762 94.6643 12.51L95.2943 13.608ZM101.474 4.33801C102.338 4.33801 103.01 4.59601 103.49 5.11201C103.982 5.62801 104.228 6.33601 104.228 7.23601V14.04H102.572V7.47001C102.572 6.79801 102.44 6.32401 102.176 6.04801C101.924 5.77201 101.552 5.63401 101.06 5.63401C100.568 5.63401 100.13 5.77801 99.7462 6.06601C99.3622 6.35401 99.0022 6.76201 98.6662 7.29001V14.04H97.0102V0.756008L98.6662 0.576008V5.86801C99.4102 4.84801 100.346 4.33801 101.474 4.33801ZM114.721 9.01801C114.721 9.29401 114.709 9.57601 114.685 9.86401H108.637C108.709 10.908 108.973 11.676 109.429 12.168C109.885 12.66 110.473 12.906 111.193 12.906C111.649 12.906 112.069 12.84 112.453 12.708C112.837 12.576 113.239 12.366 113.659 12.078L114.379 13.068C113.371 13.86 112.267 14.256 111.067 14.256C109.747 14.256 108.715 13.824 107.971 12.96C107.239 12.096 106.873 10.908 106.873 9.39601C106.873 8.41201 107.029 7.54201 107.341 6.78601C107.665 6.01801 108.121 5.41801 108.709 4.98601C109.309 4.55401 110.011 4.33801 110.815 4.33801C112.075 4.33801 113.041 4.75201 113.713 5.58001C114.385 6.40801 114.721 7.55401 114.721 9.01801ZM113.083 8.53201C113.083 7.59601 112.897 6.88201 112.525 6.39001C112.153 5.89801 111.595 5.65201 110.851 5.65201C109.495 5.65201 108.757 6.64801 108.637 8.64001H113.083V8.53201ZM132.965 4.55401L130.805 14.04H128.555L126.899 6.04801L125.189 14.04H122.993L120.779 4.55401H122.435L124.145 12.888L126.017 4.55401H127.871L129.653 12.888L131.381 4.55401H132.965ZM138.596 4.33801C139.928 4.33801 140.96 4.78201 141.692 5.67001C142.436 6.55801 142.808 7.76401 142.808 9.28801C142.808 10.272 142.64 11.142 142.304 11.898C141.968 12.642 141.482 13.224 140.846 13.644C140.21 14.052 139.454 14.256 138.578 14.256C137.246 14.256 136.208 13.812 135.464 12.924C134.72 12.036 134.348 10.83 134.348 9.30601C134.348 8.32201 134.516 7.45801 134.852 6.71401C135.188 5.95801 135.674 5.37601 136.31 4.96801C136.946 4.54801 137.708 4.33801 138.596 4.33801ZM138.596 5.67001C136.952 5.67001 136.13 6.88201 136.13 9.30601C136.13 11.718 136.946 12.924 138.578 12.924C140.21 12.924 141.026 11.712 141.026 9.28801C141.026 6.87601 140.216 5.67001 138.596 5.67001ZM149.665 4.33801C150.001 4.33801 150.313 4.37401 150.601 4.44601L150.295 6.06601C150.007 5.99401 149.731 5.95801 149.467 5.95801C148.879 5.95801 148.405 6.17401 148.045 6.60601C147.685 7.03801 147.403 7.71001 147.199 8.62201V14.04H145.543V4.55401H146.965L147.127 6.48001C147.379 5.77201 147.721 5.23801 148.153 4.87801C148.585 4.51801 149.089 4.33801 149.665 4.33801ZM159.286 0.738008V14.04H157.828L157.666 12.726C157.354 13.206 156.964 13.584 156.496 13.86C156.028 14.124 155.506 14.256 154.93 14.256C153.802 14.256 152.92 13.812 152.284 12.924C151.66 12.036 151.348 10.842 151.348 9.34201C151.348 8.37001 151.498 7.50601 151.798 6.75001C152.098 5.99401 152.53 5.40601 153.094 4.98601C153.658 4.55401 154.318 4.33801 155.074 4.33801C156.046 4.33801 156.898 4.72801 157.63 5.50801V0.540007L159.286 0.738008ZM155.29 12.942C155.794 12.942 156.226 12.828 156.586 12.6C156.946 12.36 157.294 12.006 157.63 11.538V6.89401C157.318 6.48601 156.982 6.18001 156.622 5.97601C156.274 5.76001 155.878 5.65201 155.434 5.65201C154.702 5.65201 154.132 5.95801 153.724 6.57001C153.328 7.18201 153.13 8.09401 153.13 9.30601C153.13 10.53 153.316 11.442 153.688 12.042C154.06 12.642 154.594 12.942 155.29 12.942ZM165.274 4.33801C165.922 4.33801 166.504 4.42801 167.02 4.60801C167.536 4.78801 168.028 5.05801 168.496 5.41801L167.794 6.46201C167.362 6.18601 166.948 5.98201 166.552 5.85001C166.168 5.71801 165.76 5.65201 165.328 5.65201C164.788 5.65201 164.362 5.76601 164.05 5.99401C163.738 6.21001 163.582 6.51001 163.582 6.89401C163.582 7.27801 163.726 7.57801 164.014 7.79401C164.314 8.01001 164.848 8.22001 165.616 8.42401C166.672 8.68801 167.458 9.04801 167.974 9.50401C168.502 9.96001 168.766 10.584 168.766 11.376C168.766 12.312 168.4 13.026 167.668 13.518C166.948 14.01 166.066 14.256 165.022 14.256C163.582 14.256 162.388 13.842 161.44 13.014L162.322 12.006C163.126 12.618 164.014 12.924 164.986 12.924C165.61 12.924 166.102 12.798 166.462 12.546C166.834 12.282 167.02 11.928 167.02 11.484C167.02 11.16 166.954 10.902 166.822 10.71C166.69 10.506 166.462 10.332 166.138 10.188C165.814 10.032 165.34 9.87001 164.716 9.70201C163.708 9.43801 162.976 9.08401 162.52 8.64001C162.076 8.19601 161.854 7.63201 161.854 6.94801C161.854 6.45601 161.998 6.01201 162.286 5.61601C162.586 5.20801 162.994 4.89601 163.51 4.68001C164.038 4.45201 164.626 4.33801 165.274 4.33801ZM179.43 4.33801C180.762 4.33801 181.794 4.78201 182.526 5.67001C183.27 6.55801 183.642 7.76401 183.642 9.28801C183.642 10.272 183.474 11.142 183.138 11.898C182.802 12.642 182.316 13.224 181.68 13.644C181.044 14.052 180.288 14.256 179.412 14.256C178.08 14.256 177.042 13.812 176.298 12.924C175.554 12.036 175.182 10.83 175.182 9.30601C175.182 8.32201 175.35 7.45801 175.686 6.71401C176.022 5.95801 176.508 5.37601 177.144 4.96801C177.78 4.54801 178.542 4.33801 179.43 4.33801ZM179.43 5.67001C177.786 5.67001 176.964 6.88201 176.964 9.30601C176.964 11.718 177.78 12.924 179.412 12.924C181.044 12.924 181.86 11.712 181.86 9.28801C181.86 6.87601 181.05 5.67001 179.43 5.67001ZM190.841 4.33801C191.705 4.33801 192.377 4.59601 192.857 5.11201C193.349 5.62801 193.595 6.33601 193.595 7.23601V14.04H191.939V7.47001C191.939 6.79801 191.813 6.32401 191.561 6.04801C191.309 5.77201 190.937 5.63401 190.445 5.63401C189.941 5.63401 189.497 5.77801 189.113 6.06601C188.729 6.35401 188.369 6.76801 188.033 7.30801V14.04H186.377V4.55401H187.799L187.943 5.95801C188.279 5.45401 188.693 5.05801 189.185 4.77001C189.689 4.48201 190.241 4.33801 190.841 4.33801ZM206.476 13.608C205.852 14.04 205.144 14.256 204.352 14.256C203.548 14.256 202.918 14.028 202.462 13.572C202.018 13.104 201.796 12.432 201.796 11.556V5.83201H200.14V4.55401H201.796V2.41201L203.452 2.21401V4.55401H205.702L205.522 5.83201H203.452V11.484C203.452 11.976 203.536 12.336 203.704 12.564C203.884 12.78 204.178 12.888 204.586 12.888C204.958 12.888 205.378 12.762 205.846 12.51L206.476 13.608ZM212.656 4.33801C213.52 4.33801 214.192 4.59601 214.672 5.11201C215.164 5.62801 215.41 6.33601 215.41 7.23601V14.04H213.754V7.47001C213.754 6.79801 213.622 6.32401 213.358 6.04801C213.106 5.77201 212.734 5.63401 212.242 5.63401C211.75 5.63401 211.312 5.77801 210.928 6.06601C210.544 6.35401 210.184 6.76201 209.848 7.29001V14.04H208.192V0.756008L209.848 0.576008V5.86801C210.592 4.84801 211.528 4.33801 212.656 4.33801ZM225.903 9.01801C225.903 9.29401 225.891 9.57601 225.867 9.86401H219.819C219.891 10.908 220.155 11.676 220.611 12.168C221.067 12.66 221.655 12.906 222.375 12.906C222.831 12.906 223.251 12.84 223.635 12.708C224.019 12.576 224.421 12.366 224.841 12.078L225.561 13.068C224.553 13.86 223.449 14.256 222.249 14.256C220.929 14.256 219.897 13.824 219.153 12.96C218.421 12.096 218.055 10.908 218.055 9.39601C218.055 8.41201 218.211 7.54201 218.523 6.78601C218.847 6.01801 219.303 5.41801 219.891 4.98601C220.491 4.55401 221.193 4.33801 221.997 4.33801C223.257 4.33801 224.223 4.75201 224.895 5.58001C225.567 6.40801 225.903 7.55401 225.903 9.01801ZM224.265 8.53201C224.265 7.59601 224.079 6.88201 223.707 6.39001C223.335 5.89801 222.777 5.65201 222.033 5.65201C220.677 5.65201 219.939 6.64801 219.819 8.64001H224.265V8.53201ZM237.667 4.33801C238.879 4.33801 239.767 4.77001 240.331 5.63401C240.895 6.49801 241.177 7.71601 241.177 9.28801C241.177 10.776 240.853 11.976 240.205 12.888C239.557 13.8 238.639 14.256 237.451 14.256C236.395 14.256 235.567 13.896 234.967 13.176V17.676L233.311 17.874V4.55401H234.733L234.859 5.83201C235.207 5.35201 235.627 4.98601 236.119 4.73401C236.611 4.47001 237.127 4.33801 237.667 4.33801ZM237.055 12.906C238.615 12.906 239.395 11.7 239.395 9.28801C239.395 6.86401 238.681 5.65201 237.253 5.65201C236.785 5.65201 236.359 5.79001 235.975 6.06601C235.591 6.34201 235.255 6.69601 234.967 7.12801V11.754C235.207 12.126 235.507 12.414 235.867 12.618C236.227 12.81 236.623 12.906 237.055 12.906ZM250.213 11.826C250.213 12.21 250.279 12.498 250.411 12.69C250.543 12.87 250.741 13.008 251.005 13.104L250.627 14.256C250.135 14.196 249.739 14.058 249.439 13.842C249.139 13.626 248.917 13.29 248.773 12.834C248.137 13.782 247.195 14.256 245.947 14.256C245.011 14.256 244.273 13.992 243.733 13.464C243.193 12.936 242.923 12.246 242.923 11.394C242.923 10.386 243.283 9.61201 244.003 9.07201C244.735 8.53201 245.767 8.26201 247.099 8.26201H248.557V7.56001C248.557 6.88801 248.395 6.40801 248.071 6.12001C247.747 5.83201 247.249 5.68801 246.577 5.68801C245.881 5.68801 245.029 5.85601 244.021 6.19201L243.607 4.98601C244.783 4.55401 245.875 4.33801 246.883 4.33801C247.999 4.33801 248.833 4.61401 249.385 5.16601C249.937 5.70601 250.213 6.48001 250.213 7.48801V11.826ZM246.325 13.014C247.273 13.014 248.017 12.522 248.557 11.538V9.36001H247.315C245.563 9.36001 244.687 10.008 244.687 11.304C244.687 11.868 244.825 12.294 245.101 12.582C245.377 12.87 245.785 13.014 246.325 13.014ZM261.088 4.98601C260.728 5.10601 260.332 5.18401 259.9 5.22001C259.468 5.25601 258.94 5.27401 258.316 5.27401C259.432 5.77801 259.99 6.57601 259.99 7.66801C259.99 8.61601 259.666 9.39001 259.018 9.99001C258.37 10.59 257.488 10.89 256.372 10.89C255.94 10.89 255.538 10.83 255.166 10.71C255.022 10.806 254.908 10.938 254.824 11.106C254.74 11.262 254.698 11.424 254.698 11.592C254.698 12.108 255.112 12.366 255.94 12.366H257.452C258.088 12.366 258.652 12.48 259.144 12.708C259.636 12.936 260.014 13.248 260.278 13.644C260.554 14.04 260.692 14.49 260.692 14.994C260.692 15.918 260.314 16.626 259.558 17.118C258.802 17.622 257.698 17.874 256.246 17.874C255.226 17.874 254.416 17.766 253.816 17.55C253.228 17.346 252.808 17.034 252.556 16.614C252.304 16.194 252.178 15.654 252.178 14.994H253.672C253.672 15.378 253.744 15.678 253.888 15.894C254.032 16.122 254.29 16.29 254.662 16.398C255.034 16.518 255.562 16.578 256.246 16.578C257.242 16.578 257.95 16.452 258.37 16.2C258.802 15.96 259.018 15.594 259.018 15.102C259.018 14.658 258.85 14.322 258.514 14.094C258.178 13.866 257.71 13.752 257.11 13.752H255.616C254.812 13.752 254.2 13.584 253.78 13.248C253.372 12.9 253.168 12.468 253.168 11.952C253.168 11.64 253.258 11.34 253.438 11.052C253.618 10.764 253.876 10.506 254.212 10.278C253.66 9.99001 253.252 9.63601 252.988 9.21601C252.736 8.78401 252.61 8.26201 252.61 7.65001C252.61 7.01401 252.766 6.44401 253.078 5.94001C253.402 5.43601 253.84 5.04601 254.392 4.77001C254.956 4.48201 255.58 4.33801 256.264 4.33801C257.008 4.35001 257.632 4.32601 258.136 4.26601C258.64 4.19401 259.054 4.10401 259.378 3.99601C259.714 3.87601 260.122 3.70801 260.602 3.49201L261.088 4.98601ZM256.264 5.52601C255.64 5.52601 255.154 5.72401 254.806 6.12001C254.47 6.50401 254.302 7.01401 254.302 7.65001C254.302 8.29801 254.476 8.82001 254.824 9.21601C255.172 9.60001 255.664 9.79201 256.3 9.79201C256.948 9.79201 257.44 9.60601 257.776 9.23401C258.124 8.85001 258.298 8.31601 258.298 7.63201C258.298 6.22801 257.62 5.52601 256.264 5.52601ZM269.672 9.01801C269.672 9.29401 269.66 9.57601 269.636 9.86401H263.588C263.66 10.908 263.924 11.676 264.38 12.168C264.836 12.66 265.424 12.906 266.144 12.906C266.6 12.906 267.02 12.84 267.404 12.708C267.788 12.576 268.19 12.366 268.61 12.078L269.33 13.068C268.322 13.86 267.218 14.256 266.018 14.256C264.698 14.256 263.666 13.824 262.922 12.96C262.19 12.096 261.824 10.908 261.824 9.39601C261.824 8.41201 261.98 7.54201 262.292 6.78601C262.616 6.01801 263.072 5.41801 263.66 4.98601C264.26 4.55401 264.962 4.33801 265.766 4.33801C267.026 4.33801 267.992 4.75201 268.664 5.58001C269.336 6.40801 269.672 7.55401 269.672 9.01801ZM268.034 8.53201C268.034 7.59601 267.848 6.88201 267.476 6.39001C267.104 5.89801 266.546 5.65201 265.802 5.65201C264.446 5.65201 263.708 6.64801 263.588 8.64001H268.034V8.53201ZM283.47 11.826C283.47 12.21 283.536 12.498 283.668 12.69C283.8 12.87 283.998 13.008 284.262 13.104L283.884 14.256C283.392 14.196 282.996 14.058 282.696 13.842C282.396 13.626 282.174 13.29 282.03 12.834C281.394 13.782 280.452 14.256 279.204 14.256C278.268 14.256 277.53 13.992 276.99 13.464C276.45 12.936 276.18 12.246 276.18 11.394C276.18 10.386 276.54 9.61201 277.26 9.07201C277.992 8.53201 279.024 8.26201 280.356 8.26201H281.814V7.56001C281.814 6.88801 281.652 6.40801 281.328 6.12001C281.004 5.83201 280.506 5.68801 279.834 5.68801C279.138 5.68801 278.286 5.85601 277.278 6.19201L276.864 4.98601C278.04 4.55401 279.132 4.33801 280.14 4.33801C281.256 4.33801 282.09 4.61401 282.642 5.16601C283.194 5.70601 283.47 6.48001 283.47 7.48801V11.826ZM279.582 13.014C280.53 13.014 281.274 12.522 281.814 11.538V9.36001H280.572C278.82 9.36001 277.944 10.008 277.944 11.304C277.944 11.868 278.082 12.294 278.358 12.582C278.634 12.87 279.042 13.014 279.582 13.014ZM291.335 4.33801C292.199 4.33801 292.871 4.59601 293.351 5.11201C293.843 5.62801 294.089 6.33601 294.089 7.23601V14.04H292.433V7.47001C292.433 6.79801 292.307 6.32401 292.055 6.04801C291.803 5.77201 291.431 5.63401 290.939 5.63401C290.435 5.63401 289.991 5.77801 289.607 6.06601C289.223 6.35401 288.863 6.76801 288.527 7.30801V14.04H286.871V4.55401H288.293L288.437 5.95801C288.773 5.45401 289.187 5.05801 289.679 4.77001C290.183 4.48201 290.735 4.33801 291.335 4.33801ZM304.762 0.738008V14.04H303.304L303.142 12.726C302.83 13.206 302.44 13.584 301.972 13.86C301.504 14.124 300.982 14.256 300.406 14.256C299.278 14.256 298.396 13.812 297.76 12.924C297.136 12.036 296.824 10.842 296.824 9.34201C296.824 8.37001 296.974 7.50601 297.274 6.75001C297.574 5.99401 298.006 5.40601 298.57 4.98601C299.134 4.55401 299.794 4.33801 300.55 4.33801C301.522 4.33801 302.374 4.72801 303.106 5.50801V0.540007L304.762 0.738008ZM300.766 12.942C301.27 12.942 301.702 12.828 302.062 12.6C302.422 12.36 302.77 12.006 303.106 11.538V6.89401C302.794 6.48601 302.458 6.18001 302.098 5.97601C301.75 5.76001 301.354 5.65201 300.91 5.65201C300.178 5.65201 299.608 5.95801 299.2 6.57001C298.804 7.18201 298.606 8.09401 298.606 9.30601C298.606 10.53 298.792 11.442 299.164 12.042C299.536 12.642 300.07 12.942 300.766 12.942ZM320.284 0.738008V14.04H318.826L318.664 12.726C318.352 13.206 317.962 13.584 317.494 13.86C317.026 14.124 316.504 14.256 315.928 14.256C314.8 14.256 313.918 13.812 313.282 12.924C312.658 12.036 312.346 10.842 312.346 9.34201C312.346 8.37001 312.496 7.50601 312.796 6.75001C313.096 5.99401 313.528 5.40601 314.092 4.98601C314.656 4.55401 315.316 4.33801 316.072 4.33801C317.044 4.33801 317.896 4.72801 318.628 5.50801V0.540007L320.284 0.738008ZM316.288 12.942C316.792 12.942 317.224 12.828 317.584 12.6C317.944 12.36 318.292 12.006 318.628 11.538V6.89401C318.316 6.48601 317.98 6.18001 317.62 5.97601C317.272 5.76001 316.876 5.65201 316.432 5.65201C315.7 5.65201 315.13 5.95801 314.722 6.57001C314.326 7.18201 314.128 8.09401 314.128 9.30601C314.128 10.53 314.314 11.442 314.686 12.042C315.058 12.642 315.592 12.942 316.288 12.942ZM325.354 4.55401V14.04H323.698V4.55401H325.354ZM324.508 7.98702e-06C324.856 7.98702e-06 325.138 0.108008 325.354 0.324008C325.57 0.540008 325.678 0.810008 325.678 1.13401C325.678 1.45801 325.57 1.72801 325.354 1.94401C325.138 2.14801 324.856 2.25001 324.508 2.25001C324.172 2.25001 323.896 2.14801 323.68 1.94401C323.464 1.72801 323.356 1.45801 323.356 1.13401C323.356 0.810008 323.464 0.540008 323.68 0.324008C323.896 0.108008 324.172 7.98702e-06 324.508 7.98702e-06ZM331.352 4.33801C332 4.33801 332.582 4.42801 333.098 4.60801C333.614 4.78801 334.106 5.05801 334.574 5.41801L333.872 6.46201C333.44 6.18601 333.026 5.98201 332.63 5.85001C332.246 5.71801 331.838 5.65201 331.406 5.65201C330.866 5.65201 330.44 5.76601 330.128 5.99401C329.816 6.21001 329.66 6.51001 329.66 6.89401C329.66 7.27801 329.804 7.57801 330.092 7.79401C330.392 8.01001 330.926 8.22001 331.694 8.42401C332.75 8.68801 333.536 9.04801 334.052 9.50401C334.58 9.96001 334.844 10.584 334.844 11.376C334.844 12.312 334.478 13.026 333.746 13.518C333.026 14.01 332.144 14.256 331.1 14.256C329.66 14.256 328.466 13.842 327.518 13.014L328.4 12.006C329.204 12.618 330.092 12.924 331.064 12.924C331.688 12.924 332.18 12.798 332.54 12.546C332.912 12.282 333.098 11.928 333.098 11.484C333.098 11.16 333.032 10.902 332.9 10.71C332.768 10.506 332.54 10.332 332.216 10.188C331.892 10.032 331.418 9.87001 330.794 9.70201C329.786 9.43801 329.054 9.08401 328.598 8.64001C328.154 8.19601 327.932 7.63201 327.932 6.94801C327.932 6.45601 328.076 6.01201 328.364 5.61601C328.664 5.20801 329.072 4.89601 329.588 4.68001C330.116 4.45201 330.704 4.33801 331.352 4.33801ZM341.536 4.33801C342.748 4.33801 343.636 4.77001 344.2 5.63401C344.764 6.49801 345.046 7.71601 345.046 9.28801C345.046 10.776 344.722 11.976 344.074 12.888C343.426 13.8 342.508 14.256 341.32 14.256C340.264 14.256 339.436 13.896 338.836 13.176V17.676L337.18 17.874V4.55401H338.602L338.728 5.83201C339.076 5.35201 339.496 4.98601 339.988 4.73401C340.48 4.47001 340.996 4.33801 341.536 4.33801ZM340.924 12.906C342.484 12.906 343.264 11.7 343.264 9.28801C343.264 6.86401 342.55 5.65201 341.122 5.65201C340.654 5.65201 340.228 5.79001 339.844 6.06601C339.46 6.34201 339.124 6.69601 338.836 7.12801V11.754C339.076 12.126 339.376 12.414 339.736 12.618C340.096 12.81 340.492 12.906 340.924 12.906ZM349.758 14.256C349.146 14.256 348.66 14.076 348.3 13.716C347.952 13.344 347.778 12.828 347.778 12.168V0.738008L349.434 0.540007V12.132C349.434 12.396 349.476 12.588 349.56 12.708C349.656 12.828 349.812 12.888 350.028 12.888C350.256 12.888 350.46 12.852 350.64 12.78L351.072 13.932C350.676 14.148 350.238 14.256 349.758 14.256ZM359.443 11.826C359.443 12.21 359.509 12.498 359.641 12.69C359.773 12.87 359.971 13.008 360.235 13.104L359.857 14.256C359.365 14.196 358.969 14.058 358.669 13.842C358.369 13.626 358.147 13.29 358.003 12.834C357.367 13.782 356.425 14.256 355.177 14.256C354.241 14.256 353.503 13.992 352.963 13.464C352.423 12.936 352.153 12.246 352.153 11.394C352.153 10.386 352.513 9.61201 353.233 9.07201C353.965 8.53201 354.997 8.26201 356.329 8.26201H357.787V7.56001C357.787 6.88801 357.625 6.40801 357.301 6.12001C356.977 5.83201 356.479 5.68801 355.807 5.68801C355.111 5.68801 354.259 5.85601 353.251 6.19201L352.837 4.98601C354.013 4.55401 355.105 4.33801 356.113 4.33801C357.229 4.33801 358.063 4.61401 358.615 5.16601C359.167 5.70601 359.443 6.48001 359.443 7.48801V11.826ZM355.555 13.014C356.503 13.014 357.247 12.522 357.787 11.538V9.36001H356.545C354.793 9.36001 353.917 10.008 353.917 11.304C353.917 11.868 354.055 12.294 354.331 12.582C354.607 12.87 355.015 13.014 355.555 13.014ZM366.378 14.094C366.006 15.198 365.484 16.068 364.812 16.704C364.152 17.352 363.204 17.742 361.968 17.874L361.788 16.578C362.412 16.47 362.91 16.314 363.282 16.11C363.654 15.906 363.948 15.642 364.164 15.318C364.392 15.006 364.602 14.58 364.794 14.04H364.236L361.05 4.55401H362.814L365.352 12.834L367.836 4.55401H369.546L366.378 14.094ZM373.891 4.33801C374.539 4.33801 375.121 4.42801 375.637 4.60801C376.153 4.78801 376.645 5.05801 377.113 5.41801L376.411 6.46201C375.979 6.18601 375.565 5.98201 375.169 5.85001C374.785 5.71801 374.377 5.65201 373.945 5.65201C373.405 5.65201 372.979 5.76601 372.667 5.99401C372.355 6.21001 372.199 6.51001 372.199 6.89401C372.199 7.27801 372.343 7.57801 372.631 7.79401C372.931 8.01001 373.465 8.22001 374.233 8.42401C375.289 8.68801 376.075 9.04801 376.591 9.50401C377.119 9.96001 377.383 10.584 377.383 11.376C377.383 12.312 377.017 13.026 376.285 13.518C375.565 14.01 374.683 14.256 373.639 14.256C372.199 14.256 371.005 13.842 370.057 13.014L370.939 12.006C371.743 12.618 372.631 12.924 373.603 12.924C374.227 12.924 374.719 12.798 375.079 12.546C375.451 12.282 375.637 11.928 375.637 11.484C375.637 11.16 375.571 10.902 375.439 10.71C375.307 10.506 375.079 10.332 374.755 10.188C374.431 10.032 373.957 9.87001 373.333 9.70201C372.325 9.43801 371.593 9.08401 371.137 8.64001C370.693 8.19601 370.471 7.63201 370.471 6.94801C370.471 6.45601 370.615 6.01201 370.903 5.61601C371.203 5.20801 371.611 4.89601 372.127 4.68001C372.655 4.45201 373.243 4.33801 373.891 4.33801ZM390.873 11.826C390.873 12.21 390.939 12.498 391.071 12.69C391.203 12.87 391.401 13.008 391.665 13.104L391.287 14.256C390.795 14.196 390.399 14.058 390.099 13.842C389.799 13.626 389.577 13.29 389.433 12.834C388.797 13.782 387.855 14.256 386.607 14.256C385.671 14.256 384.933 13.992 384.393 13.464C383.853 12.936 383.583 12.246 383.583 11.394C383.583 10.386 383.943 9.61201 384.663 9.07201C385.395 8.53201 386.427 8.26201 387.759 8.26201H389.217V7.56001C389.217 6.88801 389.055 6.40801 388.731 6.12001C388.407 5.83201 387.909 5.68801 387.237 5.68801C386.541 5.68801 385.689 5.85601 384.681 6.19201L384.267 4.98601C385.443 4.55401 386.535 4.33801 387.543 4.33801C388.659 4.33801 389.493 4.61401 390.045 5.16601C390.597 5.70601 390.873 6.48001 390.873 7.48801V11.826ZM386.985 13.014C387.933 13.014 388.677 12.522 389.217 11.538V9.36001H387.975C386.223 9.36001 385.347 10.008 385.347 11.304C385.347 11.868 385.485 12.294 385.761 12.582C386.037 12.87 386.445 13.014 386.985 13.014ZM401.618 0.738008V14.04H400.16L399.998 12.726C399.686 13.206 399.296 13.584 398.828 13.86C398.36 14.124 397.838 14.256 397.262 14.256C396.134 14.256 395.252 13.812 394.616 12.924C393.992 12.036 393.68 10.842 393.68 9.34201C393.68 8.37001 393.83 7.50601 394.13 6.75001C394.43 5.99401 394.862 5.40601 395.426 4.98601C395.99 4.55401 396.65 4.33801 397.406 4.33801C398.378 4.33801 399.23 4.72801 399.962 5.50801V0.540007L401.618 0.738008ZM397.622 12.942C398.126 12.942 398.558 12.828 398.918 12.6C399.278 12.36 399.626 12.006 399.962 11.538V6.89401C399.65 6.48601 399.314 6.18001 398.954 5.97601C398.606 5.76001 398.21 5.65201 397.766 5.65201C397.034 5.65201 396.464 5.95801 396.056 6.57001C395.66 7.18201 395.462 8.09401 395.462 9.30601C395.462 10.53 395.648 11.442 396.02 12.042C396.392 12.642 396.926 12.942 397.622 12.942ZM407.606 4.33801C408.254 4.33801 408.836 4.42801 409.352 4.60801C409.868 4.78801 410.36 5.05801 410.828 5.41801L410.126 6.46201C409.694 6.18601 409.28 5.98201 408.884 5.85001C408.5 5.71801 408.092 5.65201 407.66 5.65201C407.12 5.65201 406.694 5.76601 406.382 5.99401C406.07 6.21001 405.914 6.51001 405.914 6.89401C405.914 7.27801 406.058 7.57801 406.346 7.79401C406.646 8.01001 407.18 8.22001 407.948 8.42401C409.004 8.68801 409.79 9.04801 410.306 9.50401C410.834 9.96001 411.098 10.584 411.098 11.376C411.098 12.312 410.732 13.026 410 13.518C409.28 14.01 408.398 14.256 407.354 14.256C405.914 14.256 404.72 13.842 403.772 13.014L404.654 12.006C405.458 12.618 406.346 12.924 407.318 12.924C407.942 12.924 408.434 12.798 408.794 12.546C409.166 12.282 409.352 11.928 409.352 11.484C409.352 11.16 409.286 10.902 409.154 10.71C409.022 10.506 408.794 10.332 408.47 10.188C408.146 10.032 407.672 9.87001 407.048 9.70201C406.04 9.43801 405.308 9.08401 404.852 8.64001C404.408 8.19601 404.186 7.63201 404.186 6.94801C404.186 6.45601 404.33 6.01201 404.618 5.61601C404.918 5.20801 405.326 4.89601 405.842 4.68001C406.37 4.45201 406.958 4.33801 407.606 4.33801ZM422.986 13.608C422.362 14.04 421.654 14.256 420.862 14.256C420.058 14.256 419.428 14.028 418.972 13.572C418.528 13.104 418.306 12.432 418.306 11.556V5.83201H416.65V4.55401H418.306V2.41201L419.962 2.21401V4.55401H422.212L422.032 5.83201H419.962V11.484C419.962 11.976 420.046 12.336 420.214 12.564C420.394 12.78 420.688 12.888 421.096 12.888C421.468 12.888 421.888 12.762 422.356 12.51L422.986 13.608ZM429.166 4.33801C430.03 4.33801 430.702 4.59601 431.182 5.11201C431.674 5.62801 431.92 6.33601 431.92 7.23601V14.04H430.264V7.47001C430.264 6.79801 430.132 6.32401 429.868 6.04801C429.616 5.77201 429.244 5.63401 428.752 5.63401C428.26 5.63401 427.822 5.77801 427.438 6.06601C427.054 6.35401 426.694 6.76201 426.358 7.29001V14.04H424.702V0.756008L426.358 0.576008V5.86801C427.102 4.84801 428.038 4.33801 429.166 4.33801ZM441.638 11.826C441.638 12.21 441.704 12.498 441.836 12.69C441.968 12.87 442.166 13.008 442.43 13.104L442.052 14.256C441.56 14.196 441.164 14.058 440.864 13.842C440.564 13.626 440.342 13.29 440.198 12.834C439.562 13.782 438.62 14.256 437.372 14.256C436.436 14.256 435.698 13.992 435.158 13.464C434.618 12.936 434.348 12.246 434.348 11.394C434.348 10.386 434.708 9.61201 435.428 9.07201C436.16 8.53201 437.192 8.26201 438.524 8.26201H439.982V7.56001C439.982 6.88801 439.82 6.40801 439.496 6.12001C439.172 5.83201 438.674 5.68801 438.002 5.68801C437.306 5.68801 436.454 5.85601 435.446 6.19201L435.032 4.98601C436.208 4.55401 437.3 4.33801 438.308 4.33801C439.424 4.33801 440.258 4.61401 440.81 5.16601C441.362 5.70601 441.638 6.48001 441.638 7.48801V11.826ZM437.75 13.014C438.698 13.014 439.442 12.522 439.982 11.538V9.36001H438.74C436.988 9.36001 436.112 10.008 436.112 11.304C436.112 11.868 436.25 12.294 436.526 12.582C436.802 12.87 437.21 13.014 437.75 13.014ZM449.827 13.608C449.203 14.04 448.495 14.256 447.703 14.256C446.899 14.256 446.269 14.028 445.813 13.572C445.369 13.104 445.147 12.432 445.147 11.556V5.83201H443.491V4.55401H445.147V2.41201L446.803 2.21401V4.55401H449.053L448.873 5.83201H446.803V11.484C446.803 11.976 446.887 12.336 447.055 12.564C447.235 12.78 447.529 12.888 447.937 12.888C448.309 12.888 448.729 12.762 449.197 12.51L449.827 13.608ZM462.697 11.826C462.697 12.21 462.763 12.498 462.895 12.69C463.027 12.87 463.225 13.008 463.489 13.104L463.111 14.256C462.619 14.196 462.223 14.058 461.923 13.842C461.623 13.626 461.401 13.29 461.257 12.834C460.621 13.782 459.679 14.256 458.431 14.256C457.495 14.256 456.757 13.992 456.217 13.464C455.677 12.936 455.407 12.246 455.407 11.394C455.407 10.386 455.767 9.61201 456.487 9.07201C457.219 8.53201 458.251 8.26201 459.583 8.26201H461.041V7.56001C461.041 6.88801 460.879 6.40801 460.555 6.12001C460.231 5.83201 459.733 5.68801 459.061 5.68801C458.365 5.68801 457.513 5.85601 456.505 6.19201L456.091 4.98601C457.267 4.55401 458.359 4.33801 459.367 4.33801C460.483 4.33801 461.317 4.61401 461.869 5.16601C462.421 5.70601 462.697 6.48001 462.697 7.48801V11.826ZM458.809 13.014C459.757 13.014 460.501 12.522 461.041 11.538V9.36001H459.799C458.047 9.36001 457.171 10.008 457.171 11.304C457.171 11.868 457.309 12.294 457.585 12.582C457.861 12.87 458.269 13.014 458.809 13.014ZM470.22 4.33801C470.556 4.33801 470.868 4.37401 471.156 4.44601L470.85 6.06601C470.562 5.99401 470.286 5.95801 470.022 5.95801C469.434 5.95801 468.96 6.17401 468.6 6.60601C468.24 7.03801 467.958 7.71001 467.754 8.62201V14.04H466.098V4.55401H467.52L467.682 6.48001C467.934 5.77201 468.276 5.23801 468.708 4.87801C469.14 4.51801 469.644 4.33801 470.22 4.33801ZM479.66 9.01801C479.66 9.29401 479.648 9.57601 479.624 9.86401H473.576C473.648 10.908 473.912 11.676 474.368 12.168C474.824 12.66 475.412 12.906 476.132 12.906C476.588 12.906 477.008 12.84 477.392 12.708C477.776 12.576 478.178 12.366 478.598 12.078L479.318 13.068C478.31 13.86 477.206 14.256 476.006 14.256C474.686 14.256 473.654 13.824 472.91 12.96C472.178 12.096 471.812 10.908 471.812 9.39601C471.812 8.41201 471.968 7.54201 472.28 6.78601C472.604 6.01801 473.06 5.41801 473.648 4.98601C474.248 4.55401 474.95 4.33801 475.754 4.33801C477.014 4.33801 477.98 4.75201 478.652 5.58001C479.324 6.40801 479.66 7.55401 479.66 9.01801ZM478.022 8.53201C478.022 7.59601 477.836 6.88201 477.464 6.39001C477.092 5.89801 476.534 5.65201 475.79 5.65201C474.434 5.65201 473.696 6.64801 473.576 8.64001H478.022V8.53201ZM489.643 4.33801C490.291 4.33801 490.873 4.42801 491.389 4.60801C491.905 4.78801 492.397 5.05801 492.865 5.41801L492.163 6.46201C491.731 6.18601 491.317 5.98201 490.921 5.85001C490.537 5.71801 490.129 5.65201 489.697 5.65201C489.157 5.65201 488.731 5.76601 488.419 5.99401C488.107 6.21001 487.951 6.51001 487.951 6.89401C487.951 7.27801 488.095 7.57801 488.383 7.79401C488.683 8.01001 489.217 8.22001 489.985 8.42401C491.041 8.68801 491.827 9.04801 492.343 9.50401C492.871 9.96001 493.135 10.584 493.135 11.376C493.135 12.312 492.769 13.026 492.037 13.518C491.317 14.01 490.435 14.256 489.391 14.256C487.951 14.256 486.757 13.842 485.809 13.014L486.691 12.006C487.495 12.618 488.383 12.924 489.355 12.924C489.979 12.924 490.471 12.798 490.831 12.546C491.203 12.282 491.389 11.928 491.389 11.484C491.389 11.16 491.323 10.902 491.191 10.71C491.059 10.506 490.831 10.332 490.507 10.188C490.183 10.032 489.709 9.87001 489.085 9.70201C488.077 9.43801 487.345 9.08401 486.889 8.64001C486.445 8.19601 486.223 7.63201 486.223 6.94801C486.223 6.45601 486.367 6.01201 486.655 5.61601C486.955 5.20801 487.363 4.89601 487.879 4.68001C488.407 4.45201 488.995 4.33801 489.643 4.33801ZM497.127 4.55401V14.04H495.471V4.55401H497.127ZM496.281 7.98702e-06C496.629 7.98702e-06 496.911 0.108008 497.127 0.324008C497.343 0.540008 497.451 0.810008 497.451 1.13401C497.451 1.45801 497.343 1.72801 497.127 1.94401C496.911 2.14801 496.629 2.25001 496.281 2.25001C495.945 2.25001 495.669 2.14801 495.453 1.94401C495.237 1.72801 495.129 1.45801 495.129 1.13401C495.129 0.810008 495.237 0.540008 495.453 0.324008C495.669 0.108008 495.945 7.98702e-06 496.281 7.98702e-06ZM510.073 4.33801C510.853 4.33801 511.477 4.60201 511.945 5.13001C512.413 5.64601 512.647 6.34801 512.647 7.23601V14.04H510.991V7.47001C510.991 6.24601 510.547 5.63401 509.659 5.63401C509.191 5.63401 508.795 5.77201 508.471 6.04801C508.147 6.31201 507.799 6.73201 507.427 7.30801V14.04H505.771V7.47001C505.771 6.24601 505.327 5.63401 504.439 5.63401C503.959 5.63401 503.557 5.77201 503.233 6.04801C502.909 6.32401 502.567 6.74401 502.207 7.30801V14.04H500.551V4.55401H501.973L502.117 5.94001C502.825 4.87201 503.737 4.33801 504.853 4.33801C505.441 4.33801 505.939 4.48801 506.347 4.78801C506.767 5.08801 507.067 5.50801 507.247 6.04801C507.619 5.49601 508.027 5.07601 508.471 4.78801C508.927 4.48801 509.461 4.33801 510.073 4.33801ZM517.641 4.55401V14.04H515.985V4.55401H517.641ZM516.795 7.98702e-06C517.143 7.98702e-06 517.425 0.108008 517.641 0.324008C517.857 0.540008 517.965 0.810008 517.965 1.13401C517.965 1.45801 517.857 1.72801 517.641 1.94401C517.425 2.14801 517.143 2.25001 516.795 2.25001C516.459 2.25001 516.183 2.14801 515.967 1.94401C515.751 1.72801 515.643 1.45801 515.643 1.13401C515.643 0.810008 515.751 0.540008 515.967 0.324008C516.183 0.108008 516.459 7.98702e-06 516.795 7.98702e-06ZM522.955 14.256C522.343 14.256 521.857 14.076 521.497 13.716C521.149 13.344 520.975 12.828 520.975 12.168V0.738008L522.631 0.540007V12.132C522.631 12.396 522.673 12.588 522.757 12.708C522.853 12.828 523.009 12.888 523.225 12.888C523.453 12.888 523.657 12.852 523.837 12.78L524.269 13.932C523.873 14.148 523.435 14.256 522.955 14.256ZM532.64 11.826C532.64 12.21 532.706 12.498 532.838 12.69C532.97 12.87 533.168 13.008 533.432 13.104L533.054 14.256C532.562 14.196 532.166 14.058 531.866 13.842C531.566 13.626 531.344 13.29 531.2 12.834C530.564 13.782 529.622 14.256 528.374 14.256C527.438 14.256 526.7 13.992 526.16 13.464C525.62 12.936 525.35 12.246 525.35 11.394C525.35 10.386 525.71 9.61201 526.43 9.07201C527.162 8.53201 528.194 8.26201 529.526 8.26201H530.984V7.56001C530.984 6.88801 530.822 6.40801 530.498 6.12001C530.174 5.83201 529.676 5.68801 529.004 5.68801C528.308 5.68801 527.456 5.85601 526.448 6.19201L526.034 4.98601C527.21 4.55401 528.302 4.33801 529.31 4.33801C530.426 4.33801 531.26 4.61401 531.812 5.16601C532.364 5.70601 532.64 6.48001 532.64 7.48801V11.826ZM528.752 13.014C529.7 13.014 530.444 12.522 530.984 11.538V9.36001H529.742C527.99 9.36001 527.114 10.008 527.114 11.304C527.114 11.868 527.252 12.294 527.528 12.582C527.804 12.87 528.212 13.014 528.752 13.014ZM540.163 4.33801C540.499 4.33801 540.811 4.37401 541.099 4.44601L540.793 6.06601C540.505 5.99401 540.229 5.95801 539.965 5.95801C539.377 5.95801 538.903 6.17401 538.543 6.60601C538.183 7.03801 537.901 7.71001 537.697 8.62201V14.04H536.041V4.55401H537.463L537.625 6.48001C537.877 5.77201 538.219 5.23801 538.651 4.87801C539.083 4.51801 539.587 4.33801 540.163 4.33801ZM552.536 13.608C551.912 14.04 551.204 14.256 550.412 14.256C549.608 14.256 548.978 14.028 548.522 13.572C548.078 13.104 547.856 12.432 547.856 11.556V5.83201H546.2V4.55401H547.856V2.41201L549.512 2.21401V4.55401H551.762L551.582 5.83201H549.512V11.484C549.512 11.976 549.596 12.336 549.764 12.564C549.944 12.78 550.238 12.888 550.646 12.888C551.018 12.888 551.438 12.762 551.906 12.51L552.536 13.608ZM557.553 4.33801C558.885 4.33801 559.917 4.78201 560.649 5.67001C561.393 6.55801 561.765 7.76401 561.765 9.28801C561.765 10.272 561.597 11.142 561.261 11.898C560.925 12.642 560.439 13.224 559.803 13.644C559.167 14.052 558.411 14.256 557.535 14.256C556.203 14.256 555.165 13.812 554.421 12.924C553.677 12.036 553.305 10.83 553.305 9.30601C553.305 8.32201 553.473 7.45801 553.809 6.71401C554.145 5.95801 554.631 5.37601 555.267 4.96801C555.903 4.54801 556.665 4.33801 557.553 4.33801ZM557.553 5.67001C555.909 5.67001 555.087 6.88201 555.087 9.30601C555.087 11.718 555.903 12.924 557.535 12.924C559.167 12.924 559.983 11.712 559.983 9.28801C559.983 6.87601 559.173 5.67001 557.553 5.67001ZM574.052 13.608C573.428 14.04 572.72 14.256 571.928 14.256C571.124 14.256 570.494 14.028 570.038 13.572C569.594 13.104 569.372 12.432 569.372 11.556V5.83201H567.716V4.55401H569.372V2.41201L571.028 2.21401V4.55401H573.278L573.098 5.83201H571.028V11.484C571.028 11.976 571.112 12.336 571.28 12.564C571.46 12.78 571.754 12.888 572.162 12.888C572.534 12.888 572.954 12.762 573.422 12.51L574.052 13.608ZM580.232 4.33801C581.096 4.33801 581.768 4.59601 582.248 5.11201C582.74 5.62801 582.986 6.33601 582.986 7.23601V14.04H581.33V7.47001C581.33 6.79801 581.198 6.32401 580.934 6.04801C580.682 5.77201 580.31 5.63401 579.818 5.63401C579.326 5.63401 578.888 5.77801 578.504 6.06601C578.12 6.35401 577.76 6.76201 577.424 7.29001V14.04H575.768V0.756008L577.424 0.576008V5.86801C578.168 4.84801 579.104 4.33801 580.232 4.33801ZM589.879 4.33801C591.211 4.33801 592.243 4.78201 592.975 5.67001C593.719 6.55801 594.091 7.76401 594.091 9.28801C594.091 10.272 593.923 11.142 593.587 11.898C593.251 12.642 592.765 13.224 592.129 13.644C591.493 14.052 590.737 14.256 589.861 14.256C588.529 14.256 587.491 13.812 586.747 12.924C586.003 12.036 585.631 10.83 585.631 9.30601C585.631 8.32201 585.799 7.45801 586.135 6.71401C586.471 5.95801 586.957 5.37601 587.593 4.96801C588.229 4.54801 588.991 4.33801 589.879 4.33801ZM589.879 5.67001C588.235 5.67001 587.413 6.88201 587.413 9.30601C587.413 11.718 588.229 12.924 589.861 12.924C591.493 12.924 592.309 11.712 592.309 9.28801C592.309 6.87601 591.499 5.67001 589.879 5.67001ZM599.401 4.33801C600.049 4.33801 600.631 4.42801 601.147 4.60801C601.663 4.78801 602.155 5.05801 602.623 5.41801L601.921 6.46201C601.489 6.18601 601.075 5.98201 600.679 5.85001C600.295 5.71801 599.887 5.65201 599.455 5.65201C598.915 5.65201 598.489 5.76601 598.177 5.99401C597.865 6.21001 597.709 6.51001 597.709 6.89401C597.709 7.27801 597.853 7.57801 598.141 7.79401C598.441 8.01001 598.975 8.22001 599.743 8.42401C600.799 8.68801 601.585 9.04801 602.101 9.50401C602.629 9.96001 602.893 10.584 602.893 11.376C602.893 12.312 602.527 13.026 601.795 13.518C601.075 14.01 600.193 14.256 599.149 14.256C597.709 14.256 596.515 13.842 595.567 13.014L596.449 12.006C597.253 12.618 598.141 12.924 599.113 12.924C599.737 12.924 600.229 12.798 600.589 12.546C600.961 12.282 601.147 11.928 601.147 11.484C601.147 11.16 601.081 10.902 600.949 10.71C600.817 10.506 600.589 10.332 600.265 10.188C599.941 10.032 599.467 9.87001 598.843 9.70201C597.835 9.43801 597.103 9.08401 596.647 8.64001C596.203 8.19601 595.981 7.63201 595.981 6.94801C595.981 6.45601 596.125 6.01201 596.413 5.61601C596.713 5.20801 597.121 4.89601 597.637 4.68001C598.165 4.45201 598.753 4.33801 599.401 4.33801ZM612.393 9.01801C612.393 9.29401 612.381 9.57601 612.357 9.86401H606.309C606.381 10.908 606.645 11.676 607.101 12.168C607.557 12.66 608.145 12.906 608.865 12.906C609.321 12.906 609.741 12.84 610.125 12.708C610.509 12.576 610.911 12.366 611.331 12.078L612.051 13.068C611.043 13.86 609.939 14.256 608.739 14.256C607.419 14.256 606.387 13.824 605.643 12.96C604.911 12.096 604.545 10.908 604.545 9.39601C604.545 8.41201 604.701 7.54201 605.013 6.78601C605.337 6.01801 605.793 5.41801 606.381 4.98601C606.981 4.55401 607.683 4.33801 608.487 4.33801C609.747 4.33801 610.713 4.75201 611.385 5.58001C612.057 6.40801 612.393 7.55401 612.393 9.01801ZM610.755 8.53201C610.755 7.59601 610.569 6.88201 610.197 6.39001C609.825 5.89801 609.267 5.65201 608.523 5.65201C607.167 5.65201 606.429 6.64801 606.309 8.64001H610.755V8.53201ZM630.637 4.55401L628.477 14.04H626.227L624.571 6.04801L622.861 14.04H620.665L618.451 4.55401H620.107L621.817 12.888L623.689 4.55401H625.543L627.325 12.888L629.053 4.55401H630.637ZM636.268 4.33801C637.6 4.33801 638.632 4.78201 639.364 5.67001C640.108 6.55801 640.48 7.76401 640.48 9.28801C640.48 10.272 640.312 11.142 639.976 11.898C639.64 12.642 639.154 13.224 638.518 13.644C637.882 14.052 637.126 14.256 636.25 14.256C634.918 14.256 633.88 13.812 633.136 12.924C632.392 12.036 632.02 10.83 632.02 9.30601C632.02 8.32201 632.188 7.45801 632.524 6.71401C632.86 5.95801 633.346 5.37601 633.982 4.96801C634.618 4.54801 635.38 4.33801 636.268 4.33801ZM636.268 5.67001C634.624 5.67001 633.802 6.88201 633.802 9.30601C633.802 11.718 634.618 12.924 636.25 12.924C637.882 12.924 638.698 11.712 638.698 9.28801C638.698 6.87601 637.888 5.67001 636.268 5.67001ZM647.337 4.33801C647.673 4.33801 647.985 4.37401 648.273 4.44601L647.967 6.06601C647.679 5.99401 647.403 5.95801 647.139 5.95801C646.551 5.95801 646.077 6.17401 645.717 6.60601C645.357 7.03801 645.075 7.71001 644.871 8.62201V14.04H643.215V4.55401H644.637L644.799 6.48001C645.051 5.77201 645.393 5.23801 645.825 4.87801C646.257 4.51801 646.761 4.33801 647.337 4.33801ZM656.958 0.738008V14.04H655.5L655.338 12.726C655.026 13.206 654.636 13.584 654.168 13.86C653.7 14.124 653.178 14.256 652.602 14.256C651.474 14.256 650.592 13.812 649.956 12.924C649.332 12.036 649.02 10.842 649.02 9.34201C649.02 8.37001 649.17 7.50601 649.47 6.75001C649.77 5.99401 650.202 5.40601 650.766 4.98601C651.33 4.55401 651.99 4.33801 652.746 4.33801C653.718 4.33801 654.57 4.72801 655.302 5.50801V0.540007L656.958 0.738008ZM652.962 12.942C653.466 12.942 653.898 12.828 654.258 12.6C654.618 12.36 654.966 12.006 655.302 11.538V6.89401C654.99 6.48601 654.654 6.18001 654.294 5.97601C653.946 5.76001 653.55 5.65201 653.106 5.65201C652.374 5.65201 651.804 5.95801 651.396 6.57001C651 7.18201 650.802 8.09401 650.802 9.30601C650.802 10.53 650.988 11.442 651.36 12.042C651.732 12.642 652.266 12.942 652.962 12.942ZM662.945 4.33801C663.593 4.33801 664.175 4.42801 664.691 4.60801C665.207 4.78801 665.699 5.05801 666.167 5.41801L665.465 6.46201C665.033 6.18601 664.619 5.98201 664.223 5.85001C663.839 5.71801 663.431 5.65201 662.999 5.65201C662.459 5.65201 662.033 5.76601 661.721 5.99401C661.409 6.21001 661.253 6.51001 661.253 6.89401C661.253 7.27801 661.397 7.57801 661.685 7.79401C661.985 8.01001 662.519 8.22001 663.287 8.42401C664.343 8.68801 665.129 9.04801 665.645 9.50401C666.173 9.96001 666.437 10.584 666.437 11.376C666.437 12.312 666.071 13.026 665.339 13.518C664.619 14.01 663.737 14.256 662.693 14.256C661.253 14.256 660.059 13.842 659.111 13.014L659.993 12.006C660.797 12.618 661.685 12.924 662.657 12.924C663.281 12.924 663.773 12.798 664.133 12.546C664.505 12.282 664.691 11.928 664.691 11.484C664.691 11.16 664.625 10.902 664.493 10.71C664.361 10.506 664.133 10.332 663.809 10.188C663.485 10.032 663.011 9.87001 662.387 9.70201C661.379 9.43801 660.647 9.08401 660.191 8.64001C659.747 8.19601 659.525 7.63201 659.525 6.94801C659.525 6.45601 659.669 6.01201 659.957 5.61601C660.257 5.20801 660.665 4.89601 661.181 4.68001C661.709 4.45201 662.297 4.33801 662.945 4.33801ZM669.206 11.754C669.566 11.754 669.866 11.874 670.106 12.114C670.346 12.354 670.466 12.648 670.466 12.996C670.466 13.344 670.346 13.644 670.106 13.896C669.866 14.136 669.566 14.256 669.206 14.256C668.858 14.256 668.564 14.136 668.324 13.896C668.084 13.644 667.964 13.344 667.964 12.996C667.964 12.648 668.084 12.354 668.324 12.114C668.564 11.874 668.858 11.754 669.206 11.754ZM685.278 1.63801L685.098 3.09601H681.66V14.04H679.95V3.09601H676.422V1.63801H685.278ZM691.625 4.33801C692.489 4.33801 693.161 4.59601 693.641 5.11201C694.133 5.62801 694.379 6.33601 694.379 7.23601V14.04H692.723V7.47001C692.723 6.79801 692.591 6.32401 692.327 6.04801C692.075 5.77201 691.703 5.63401 691.211 5.63401C690.719 5.63401 690.281 5.77801 689.897 6.06601C689.513 6.35401 689.153 6.76201 688.817 7.29001V14.04H687.161V0.756008L688.817 0.576008V5.86801C689.561 4.84801 690.497 4.33801 691.625 4.33801ZM704.871 9.01801C704.871 9.29401 704.859 9.57601 704.835 9.86401H698.787C698.859 10.908 699.123 11.676 699.579 12.168C700.035 12.66 700.623 12.906 701.343 12.906C701.799 12.906 702.219 12.84 702.603 12.708C702.987 12.576 703.389 12.366 703.809 12.078L704.529 13.068C703.521 13.86 702.417 14.256 701.217 14.256C699.897 14.256 698.865 13.824 698.121 12.96C697.389 12.096 697.023 10.908 697.023 9.39601C697.023 8.41201 697.179 7.54201 697.491 6.78601C697.815 6.01801 698.271 5.41801 698.859 4.98601C699.459 4.55401 700.161 4.33801 700.965 4.33801C702.225 4.33801 703.191 4.75201 703.863 5.58001C704.535 6.40801 704.871 7.55401 704.871 9.01801ZM703.233 8.53201C703.233 7.59601 703.047 6.88201 702.675 6.39001C702.303 5.89801 701.745 5.65201 701.001 5.65201C699.645 5.65201 698.907 6.64801 698.787 8.64001H703.233V8.53201ZM711.98 4.33801C712.844 4.33801 713.516 4.59601 713.996 5.11201C714.488 5.62801 714.734 6.33601 714.734 7.23601V14.04H713.078V7.47001C713.078 6.79801 712.952 6.32401 712.7 6.04801C712.448 5.77201 712.076 5.63401 711.584 5.63401C711.08 5.63401 710.636 5.77801 710.252 6.06601C709.868 6.35401 709.508 6.76801 709.172 7.30801V14.04H707.516V4.55401H708.938L709.082 5.95801C709.418 5.45401 709.832 5.05801 710.324 4.77001C710.828 4.48201 711.38 4.33801 711.98 4.33801ZM12.186 32.554L10.026 42.04H7.77602L6.12001 34.048L4.41001 42.04H2.21401L1.46739e-05 32.554H1.65601L3.36601 40.888L5.23801 32.554H7.09202L8.87401 40.888L10.602 32.554H12.186ZM18.7164 32.338C19.5804 32.338 20.2524 32.596 20.7324 33.112C21.2244 33.628 21.4704 34.336 21.4704 35.236V42.04H19.8144V35.47C19.8144 34.798 19.6824 34.324 19.4184 34.048C19.1664 33.772 18.7944 33.634 18.3024 33.634C17.8104 33.634 17.3724 33.778 16.9884 34.066C16.6044 34.354 16.2444 34.762 15.9084 35.29V42.04H14.2524V28.756L15.9084 28.576V33.868C16.6524 32.848 17.5884 32.338 18.7164 32.338ZM31.9632 37.018C31.9632 37.294 31.9512 37.576 31.9272 37.864H25.8792C25.9512 38.908 26.2152 39.676 26.6712 40.168C27.1272 40.66 27.7152 40.906 28.4352 40.906C28.8912 40.906 29.3112 40.84 29.6952 40.708C30.0792 40.576 30.4812 40.366 30.9012 40.078L31.6212 41.068C30.6132 41.86 29.5092 42.256 28.3092 42.256C26.9892 42.256 25.9572 41.824 25.2132 40.96C24.4812 40.096 24.1152 38.908 24.1152 37.396C24.1152 36.412 24.2712 35.542 24.5832 34.786C24.9072 34.018 25.3632 33.418 25.9512 32.986C26.5512 32.554 27.2532 32.338 28.0572 32.338C29.3172 32.338 30.2832 32.752 30.9552 33.58C31.6272 34.408 31.9632 35.554 31.9632 37.018ZM30.3252 36.532C30.3252 35.596 30.1392 34.882 29.7672 34.39C29.3952 33.898 28.8372 33.652 28.0932 33.652C26.7372 33.652 25.9992 34.648 25.8792 36.64H30.3252V36.532ZM39.0718 32.338C39.9358 32.338 40.6078 32.596 41.0878 33.112C41.5798 33.628 41.8258 34.336 41.8258 35.236V42.04H40.1698V35.47C40.1698 34.798 40.0438 34.324 39.7918 34.048C39.5398 33.772 39.1678 33.634 38.6758 33.634C38.1718 33.634 37.7278 33.778 37.3438 34.066C36.9598 34.354 36.5998 34.768 36.2638 35.308V42.04H34.6078V32.554H36.0298L36.1738 33.958C36.5098 33.454 36.9238 33.058 37.4158 32.77C37.9198 32.482 38.4718 32.338 39.0718 32.338ZM52.4924 32.338C53.1404 32.338 53.7224 32.428 54.2384 32.608C54.7544 32.788 55.2464 33.058 55.7144 33.418L55.0124 34.462C54.5804 34.186 54.1664 33.982 53.7704 33.85C53.3864 33.718 52.9784 33.652 52.5464 33.652C52.0064 33.652 51.5804 33.766 51.2684 33.994C50.9564 34.21 50.8004 34.51 50.8004 34.894C50.8004 35.278 50.9444 35.578 51.2324 35.794C51.5324 36.01 52.0664 36.22 52.8344 36.424C53.8904 36.688 54.6764 37.048 55.1924 37.504C55.7204 37.96 55.9844 38.584 55.9844 39.376C55.9844 40.312 55.6184 41.026 54.8864 41.518C54.1664 42.01 53.2844 42.256 52.2404 42.256C50.8004 42.256 49.6064 41.842 48.6584 41.014L49.5404 40.006C50.3444 40.618 51.2324 40.924 52.2044 40.924C52.8284 40.924 53.3204 40.798 53.6804 40.546C54.0524 40.282 54.2384 39.928 54.2384 39.484C54.2384 39.16 54.1724 38.902 54.0404 38.71C53.9084 38.506 53.6804 38.332 53.3564 38.188C53.0324 38.032 52.5584 37.87 51.9344 37.702C50.9264 37.438 50.1944 37.084 49.7384 36.64C49.2944 36.196 49.0724 35.632 49.0724 34.948C49.0724 34.456 49.2164 34.012 49.5044 33.616C49.8044 33.208 50.2124 32.896 50.7284 32.68C51.2564 32.452 51.8444 32.338 52.4924 32.338ZM61.8847 32.338C63.2167 32.338 64.2487 32.782 64.9807 33.67C65.7247 34.558 66.0967 35.764 66.0967 37.288C66.0967 38.272 65.9287 39.142 65.5927 39.898C65.2567 40.642 64.7707 41.224 64.1347 41.644C63.4987 42.052 62.7427 42.256 61.8667 42.256C60.5347 42.256 59.4967 41.812 58.7527 40.924C58.0087 40.036 57.6367 38.83 57.6367 37.306C57.6367 36.322 57.8047 35.458 58.1407 34.714C58.4767 33.958 58.9627 33.376 59.5987 32.968C60.2347 32.548 60.9967 32.338 61.8847 32.338ZM61.8847 33.67C60.2407 33.67 59.4187 34.882 59.4187 37.306C59.4187 39.718 60.2347 40.924 61.8667 40.924C63.4987 40.924 64.3147 39.712 64.3147 37.288C64.3147 34.876 63.5047 33.67 61.8847 33.67ZM78.3544 32.338C79.1344 32.338 79.7584 32.602 80.2264 33.13C80.6944 33.646 80.9284 34.348 80.9284 35.236V42.04H79.2724V35.47C79.2724 34.246 78.8284 33.634 77.9404 33.634C77.4724 33.634 77.0764 33.772 76.7524 34.048C76.4284 34.312 76.0804 34.732 75.7084 35.308V42.04H74.0524V35.47C74.0524 34.246 73.6084 33.634 72.7204 33.634C72.2404 33.634 71.8384 33.772 71.5144 34.048C71.1904 34.324 70.8484 34.744 70.4884 35.308V42.04H68.8324V32.554H70.2544L70.3984 33.94C71.1064 32.872 72.0184 32.338 73.1344 32.338C73.7224 32.338 74.2204 32.488 74.6284 32.788C75.0484 33.088 75.3484 33.508 75.5284 34.048C75.9004 33.496 76.3084 33.076 76.7524 32.788C77.2084 32.488 77.7424 32.338 78.3544 32.338ZM91.43 37.018C91.43 37.294 91.418 37.576 91.394 37.864H85.346C85.418 38.908 85.682 39.676 86.138 40.168C86.594 40.66 87.182 40.906 87.902 40.906C88.358 40.906 88.778 40.84 89.162 40.708C89.546 40.576 89.948 40.366 90.368 40.078L91.088 41.068C90.08 41.86 88.976 42.256 87.776 42.256C86.456 42.256 85.424 41.824 84.68 40.96C83.948 40.096 83.582 38.908 83.582 37.396C83.582 36.412 83.738 35.542 84.05 34.786C84.374 34.018 84.83 33.418 85.418 32.986C86.018 32.554 86.72 32.338 87.524 32.338C88.784 32.338 89.75 32.752 90.422 33.58C91.094 34.408 91.43 35.554 91.43 37.018ZM89.792 36.532C89.792 35.596 89.606 34.882 89.234 34.39C88.862 33.898 88.304 33.652 87.56 33.652C86.204 33.652 85.466 34.648 85.346 36.64H89.792V36.532ZM97.6386 32.338C98.9706 32.338 100.003 32.782 100.735 33.67C101.479 34.558 101.851 35.764 101.851 37.288C101.851 38.272 101.683 39.142 101.347 39.898C101.011 40.642 100.525 41.224 99.8886 41.644C99.2526 42.052 98.4966 42.256 97.6206 42.256C96.2886 42.256 95.2506 41.812 94.5066 40.924C93.7626 40.036 93.3906 38.83 93.3906 37.306C93.3906 36.322 93.5586 35.458 93.8946 34.714C94.2306 33.958 94.7166 33.376 95.3526 32.968C95.9886 32.548 96.7506 32.338 97.6386 32.338ZM97.6386 33.67C95.9946 33.67 95.1726 34.882 95.1726 37.306C95.1726 39.718 95.9886 40.924 97.6206 40.924C99.2526 40.924 100.069 39.712 100.069 37.288C100.069 34.876 99.2586 33.67 97.6386 33.67ZM109.05 32.338C109.914 32.338 110.586 32.596 111.066 33.112C111.558 33.628 111.804 34.336 111.804 35.236V42.04H110.148V35.47C110.148 34.798 110.022 34.324 109.77 34.048C109.518 33.772 109.146 33.634 108.654 33.634C108.15 33.634 107.706 33.778 107.322 34.066C106.938 34.354 106.578 34.768 106.242 35.308V42.04H104.586V32.554H106.008L106.152 33.958C106.488 33.454 106.902 33.058 107.394 32.77C107.898 32.482 108.45 32.338 109.05 32.338ZM122.297 37.018C122.297 37.294 122.285 37.576 122.261 37.864H116.213C116.285 38.908 116.549 39.676 117.005 40.168C117.461 40.66 118.049 40.906 118.769 40.906C119.225 40.906 119.645 40.84 120.029 40.708C120.413 40.576 120.815 40.366 121.235 40.078L121.955 41.068C120.947 41.86 119.843 42.256 118.643 42.256C117.323 42.256 116.291 41.824 115.547 40.96C114.815 40.096 114.449 38.908 114.449 37.396C114.449 36.412 114.605 35.542 114.917 34.786C115.241 34.018 115.697 33.418 116.285 32.986C116.885 32.554 117.587 32.338 118.391 32.338C119.651 32.338 120.617 32.752 121.289 33.58C121.961 34.408 122.297 35.554 122.297 37.018ZM120.659 36.532C120.659 35.596 120.473 34.882 120.101 34.39C119.729 33.898 119.171 33.652 118.427 33.652C117.071 33.652 116.333 34.648 116.213 36.64H120.659V36.532ZM136.869 37.018C136.869 37.294 136.857 37.576 136.833 37.864H130.785C130.857 38.908 131.121 39.676 131.577 40.168C132.033 40.66 132.621 40.906 133.341 40.906C133.797 40.906 134.217 40.84 134.601 40.708C134.985 40.576 135.387 40.366 135.807 40.078L136.527 41.068C135.519 41.86 134.415 42.256 133.215 42.256C131.895 42.256 130.863 41.824 130.119 40.96C129.387 40.096 129.021 38.908 129.021 37.396C129.021 36.412 129.177 35.542 129.489 34.786C129.813 34.018 130.269 33.418 130.857 32.986C131.457 32.554 132.159 32.338 132.963 32.338C134.223 32.338 135.189 32.752 135.861 33.58C136.533 34.408 136.869 35.554 136.869 37.018ZM135.231 36.532C135.231 35.596 135.045 34.882 134.673 34.39C134.301 33.898 133.743 33.652 132.999 33.652C131.643 33.652 130.905 34.648 130.785 36.64H135.231V36.532ZM141.17 32.554V42.04H139.514V32.554H141.17ZM140.324 28C140.672 28 140.954 28.108 141.17 28.324C141.386 28.54 141.494 28.81 141.494 29.134C141.494 29.458 141.386 29.728 141.17 29.944C140.954 30.148 140.672 30.25 140.324 30.25C139.988 30.25 139.712 30.148 139.496 29.944C139.28 29.728 139.172 29.458 139.172 29.134C139.172 28.81 139.28 28.54 139.496 28.324C139.712 28.108 139.988 28 140.324 28ZM149.382 41.608C148.758 42.04 148.05 42.256 147.258 42.256C146.454 42.256 145.824 42.028 145.368 41.572C144.924 41.104 144.702 40.432 144.702 39.556V33.832H143.046V32.554H144.702V30.412L146.358 30.214V32.554H148.608L148.428 33.832H146.358V39.484C146.358 39.976 146.442 40.336 146.61 40.564C146.79 40.78 147.084 40.888 147.492 40.888C147.864 40.888 148.284 40.762 148.752 40.51L149.382 41.608ZM155.562 32.338C156.426 32.338 157.098 32.596 157.578 33.112C158.07 33.628 158.316 34.336 158.316 35.236V42.04H156.66V35.47C156.66 34.798 156.528 34.324 156.264 34.048C156.012 33.772 155.64 33.634 155.148 33.634C154.656 33.634 154.218 33.778 153.834 34.066C153.45 34.354 153.09 34.762 152.754 35.29V42.04H151.098V28.756L152.754 28.576V33.868C153.498 32.848 154.434 32.338 155.562 32.338ZM168.809 37.018C168.809 37.294 168.797 37.576 168.773 37.864H162.725C162.797 38.908 163.061 39.676 163.517 40.168C163.973 40.66 164.561 40.906 165.281 40.906C165.737 40.906 166.157 40.84 166.541 40.708C166.925 40.576 167.327 40.366 167.747 40.078L168.467 41.068C167.459 41.86 166.355 42.256 165.155 42.256C163.835 42.256 162.803 41.824 162.059 40.96C161.327 40.096 160.961 38.908 160.961 37.396C160.961 36.412 161.117 35.542 161.429 34.786C161.753 34.018 162.209 33.418 162.797 32.986C163.397 32.554 164.099 32.338 164.903 32.338C166.163 32.338 167.129 32.752 167.801 33.58C168.473 34.408 168.809 35.554 168.809 37.018ZM167.171 36.532C167.171 35.596 166.985 34.882 166.613 34.39C166.241 33.898 165.683 33.652 164.939 33.652C163.583 33.652 162.845 34.648 162.725 36.64H167.171V36.532ZM175.576 32.338C175.912 32.338 176.224 32.374 176.512 32.446L176.206 34.066C175.918 33.994 175.642 33.958 175.378 33.958C174.79 33.958 174.316 34.174 173.956 34.606C173.596 35.038 173.314 35.71 173.11 36.622V42.04H171.454V32.554H172.876L173.038 34.48C173.29 33.772 173.632 33.238 174.064 32.878C174.496 32.518 175 32.338 175.576 32.338ZM187.517 32.338C188.729 32.338 189.617 32.77 190.181 33.634C190.745 34.498 191.027 35.716 191.027 37.288C191.027 38.776 190.703 39.976 190.055 40.888C189.407 41.8 188.489 42.256 187.301 42.256C186.245 42.256 185.417 41.896 184.817 41.176V45.676L183.161 45.874V32.554H184.583L184.709 33.832C185.057 33.352 185.477 32.986 185.969 32.734C186.461 32.47 186.977 32.338 187.517 32.338ZM186.905 40.906C188.465 40.906 189.245 39.7 189.245 37.288C189.245 34.864 188.531 33.652 187.103 33.652C186.635 33.652 186.209 33.79 185.825 34.066C185.441 34.342 185.105 34.696 184.817 35.128V39.754C185.057 40.126 185.357 40.414 185.717 40.618C186.077 40.81 186.473 40.906 186.905 40.906ZM201.012 37.018C201.012 37.294 201 37.576 200.976 37.864H194.928C195 38.908 195.264 39.676 195.72 40.168C196.176 40.66 196.764 40.906 197.484 40.906C197.94 40.906 198.36 40.84 198.744 40.708C199.128 40.576 199.53 40.366 199.95 40.078L200.67 41.068C199.662 41.86 198.558 42.256 197.358 42.256C196.038 42.256 195.006 41.824 194.262 40.96C193.53 40.096 193.164 38.908 193.164 37.396C193.164 36.412 193.32 35.542 193.632 34.786C193.956 34.018 194.412 33.418 195 32.986C195.6 32.554 196.302 32.338 197.106 32.338C198.366 32.338 199.332 32.752 200.004 33.58C200.676 34.408 201.012 35.554 201.012 37.018ZM199.374 36.532C199.374 35.596 199.188 34.882 198.816 34.39C198.444 33.898 197.886 33.652 197.142 33.652C195.786 33.652 195.048 34.648 194.928 36.64H199.374V36.532ZM207.779 32.338C208.115 32.338 208.427 32.374 208.715 32.446L208.409 34.066C208.121 33.994 207.845 33.958 207.581 33.958C206.993 33.958 206.519 34.174 206.159 34.606C205.799 35.038 205.517 35.71 205.313 36.622V42.04H203.657V32.554H205.079L205.241 34.48C205.493 33.772 205.835 33.238 206.267 32.878C206.699 32.518 207.203 32.338 207.779 32.338ZM213.822 29.872C213.318 29.872 212.958 29.986 212.742 30.214C212.526 30.43 212.418 30.772 212.418 31.24V32.554H214.722L214.542 33.832H212.418V42.04H210.762V33.832H209.07V32.554H210.762V31.258C210.762 30.442 211.02 29.788 211.536 29.296C212.064 28.792 212.796 28.54 213.732 28.54C214.164 28.54 214.548 28.582 214.884 28.666C215.232 28.738 215.604 28.858 216 29.026L215.478 30.232C214.938 29.992 214.386 29.872 213.822 29.872ZM220.018 32.338C221.35 32.338 222.382 32.782 223.114 33.67C223.858 34.558 224.23 35.764 224.23 37.288C224.23 38.272 224.062 39.142 223.726 39.898C223.39 40.642 222.904 41.224 222.268 41.644C221.632 42.052 220.876 42.256 220 42.256C218.668 42.256 217.63 41.812 216.886 40.924C216.142 40.036 215.77 38.83 215.77 37.306C215.77 36.322 215.938 35.458 216.274 34.714C216.61 33.958 217.096 33.376 217.732 32.968C218.368 32.548 219.13 32.338 220.018 32.338ZM220.018 33.67C218.374 33.67 217.552 34.882 217.552 37.306C217.552 39.718 218.368 40.924 220 40.924C221.632 40.924 222.448 39.712 222.448 37.288C222.448 34.876 221.638 33.67 220.018 33.67ZM231.087 32.338C231.423 32.338 231.735 32.374 232.023 32.446L231.717 34.066C231.429 33.994 231.153 33.958 230.889 33.958C230.301 33.958 229.827 34.174 229.467 34.606C229.107 35.038 228.825 35.71 228.621 36.622V42.04H226.965V32.554H228.387L228.549 34.48C228.801 33.772 229.143 33.238 229.575 32.878C230.007 32.518 230.511 32.338 231.087 32.338ZM243.431 32.338C244.211 32.338 244.835 32.602 245.303 33.13C245.771 33.646 246.005 34.348 246.005 35.236V42.04H244.349V35.47C244.349 34.246 243.905 33.634 243.017 33.634C242.549 33.634 242.153 33.772 241.829 34.048C241.505 34.312 241.157 34.732 240.785 35.308V42.04H239.129V35.47C239.129 34.246 238.685 33.634 237.797 33.634C237.317 33.634 236.915 33.772 236.591 34.048C236.267 34.324 235.925 34.744 235.565 35.308V42.04H233.909V32.554H235.331L235.475 33.94C236.183 32.872 237.095 32.338 238.211 32.338C238.799 32.338 239.297 32.488 239.705 32.788C240.125 33.088 240.425 33.508 240.605 34.048C240.977 33.496 241.385 33.076 241.829 32.788C242.285 32.488 242.819 32.338 243.431 32.338ZM251.916 32.338C252.564 32.338 253.146 32.428 253.662 32.608C254.178 32.788 254.67 33.058 255.138 33.418L254.436 34.462C254.004 34.186 253.59 33.982 253.194 33.85C252.81 33.718 252.402 33.652 251.97 33.652C251.43 33.652 251.004 33.766 250.692 33.994C250.38 34.21 250.224 34.51 250.224 34.894C250.224 35.278 250.368 35.578 250.656 35.794C250.956 36.01 251.49 36.22 252.258 36.424C253.314 36.688 254.1 37.048 254.616 37.504C255.144 37.96 255.408 38.584 255.408 39.376C255.408 40.312 255.042 41.026 254.31 41.518C253.59 42.01 252.708 42.256 251.664 42.256C250.224 42.256 249.03 41.842 248.082 41.014L248.964 40.006C249.768 40.618 250.656 40.924 251.628 40.924C252.252 40.924 252.744 40.798 253.104 40.546C253.476 40.282 253.662 39.928 253.662 39.484C253.662 39.16 253.596 38.902 253.464 38.71C253.332 38.506 253.104 38.332 252.78 38.188C252.456 38.032 251.982 37.87 251.358 37.702C250.35 37.438 249.618 37.084 249.162 36.64C248.718 36.196 248.496 35.632 248.496 34.948C248.496 34.456 248.64 34.012 248.928 33.616C249.228 33.208 249.636 32.896 250.152 32.68C250.68 32.452 251.268 32.338 251.916 32.338ZM268.898 39.826C268.898 40.21 268.964 40.498 269.096 40.69C269.228 40.87 269.426 41.008 269.69 41.104L269.312 42.256C268.82 42.196 268.424 42.058 268.124 41.842C267.824 41.626 267.602 41.29 267.458 40.834C266.822 41.782 265.88 42.256 264.632 42.256C263.696 42.256 262.958 41.992 262.418 41.464C261.878 40.936 261.608 40.246 261.608 39.394C261.608 38.386 261.968 37.612 262.688 37.072C263.42 36.532 264.452 36.262 265.784 36.262H267.242V35.56C267.242 34.888 267.08 34.408 266.756 34.12C266.432 33.832 265.934 33.688 265.262 33.688C264.566 33.688 263.714 33.856 262.706 34.192L262.292 32.986C263.468 32.554 264.56 32.338 265.568 32.338C266.684 32.338 267.518 32.614 268.07 33.166C268.622 33.706 268.898 34.48 268.898 35.488V39.826ZM265.01 41.014C265.958 41.014 266.702 40.522 267.242 39.538V37.36H266C264.248 37.36 263.372 38.008 263.372 39.304C263.372 39.868 263.51 40.294 263.786 40.582C264.062 40.87 264.47 41.014 265.01 41.014ZM276.763 32.338C277.627 32.338 278.299 32.596 278.779 33.112C279.271 33.628 279.517 34.336 279.517 35.236V42.04H277.861V35.47C277.861 34.798 277.735 34.324 277.483 34.048C277.231 33.772 276.859 33.634 276.367 33.634C275.863 33.634 275.419 33.778 275.035 34.066C274.651 34.354 274.291 34.768 273.955 35.308V42.04H272.299V32.554H273.721L273.865 33.958C274.201 33.454 274.615 33.058 275.107 32.77C275.611 32.482 276.163 32.338 276.763 32.338ZM294 39.826C294 40.21 294.066 40.498 294.198 40.69C294.33 40.87 294.528 41.008 294.792 41.104L294.414 42.256C293.922 42.196 293.526 42.058 293.226 41.842C292.926 41.626 292.704 41.29 292.56 40.834C291.924 41.782 290.982 42.256 289.734 42.256C288.798 42.256 288.06 41.992 287.52 41.464C286.98 40.936 286.71 40.246 286.71 39.394C286.71 38.386 287.07 37.612 287.79 37.072C288.522 36.532 289.554 36.262 290.886 36.262H292.344V35.56C292.344 34.888 292.182 34.408 291.858 34.12C291.534 33.832 291.036 33.688 290.364 33.688C289.668 33.688 288.816 33.856 287.808 34.192L287.394 32.986C288.57 32.554 289.662 32.338 290.67 32.338C291.786 32.338 292.62 32.614 293.172 33.166C293.724 33.706 294 34.48 294 35.488V39.826ZM290.112 41.014C291.06 41.014 291.804 40.522 292.344 39.538V37.36H291.102C289.35 37.36 288.474 38.008 288.474 39.304C288.474 39.868 288.612 40.294 288.888 40.582C289.164 40.87 289.572 41.014 290.112 41.014ZM300.857 32.338C301.421 32.338 301.937 32.422 302.405 32.59C302.873 32.746 303.323 33.004 303.755 33.364L302.963 34.408C302.627 34.168 302.297 33.994 301.973 33.886C301.661 33.766 301.313 33.706 300.929 33.706C300.161 33.706 299.561 34.012 299.129 34.624C298.709 35.236 298.499 36.142 298.499 37.342C298.499 38.542 298.709 39.43 299.129 40.006C299.549 40.57 300.149 40.852 300.929 40.852C301.301 40.852 301.643 40.798 301.955 40.69C302.267 40.57 302.615 40.384 302.999 40.132L303.755 41.212C302.891 41.908 301.925 42.256 300.857 42.256C299.573 42.256 298.559 41.824 297.815 40.96C297.083 40.096 296.717 38.902 296.717 37.378C296.717 36.37 296.885 35.488 297.221 34.732C297.557 33.976 298.031 33.388 298.643 32.968C299.267 32.548 300.005 32.338 300.857 32.338ZM310.784 41.608C310.16 42.04 309.452 42.256 308.66 42.256C307.856 42.256 307.226 42.028 306.77 41.572C306.326 41.104 306.104 40.432 306.104 39.556V33.832H304.448V32.554H306.104V30.412L307.76 30.214V32.554H310.01L309.83 33.832H307.76V39.484C307.76 39.976 307.844 40.336 308.012 40.564C308.192 40.78 308.486 40.888 308.894 40.888C309.266 40.888 309.686 40.762 310.154 40.51L310.784 41.608ZM314.156 32.554V42.04H312.5V32.554H314.156ZM313.31 28C313.658 28 313.94 28.108 314.156 28.324C314.372 28.54 314.48 28.81 314.48 29.134C314.48 29.458 314.372 29.728 314.156 29.944C313.94 30.148 313.658 30.25 313.31 30.25C312.974 30.25 312.698 30.148 312.482 29.944C312.266 29.728 312.158 29.458 312.158 29.134C312.158 28.81 312.266 28.54 312.482 28.324C312.698 28.108 312.974 28 313.31 28ZM321.144 32.338C322.476 32.338 323.508 32.782 324.24 33.67C324.984 34.558 325.356 35.764 325.356 37.288C325.356 38.272 325.188 39.142 324.852 39.898C324.516 40.642 324.03 41.224 323.394 41.644C322.758 42.052 322.002 42.256 321.126 42.256C319.794 42.256 318.756 41.812 318.012 40.924C317.268 40.036 316.896 38.83 316.896 37.306C316.896 36.322 317.064 35.458 317.4 34.714C317.736 33.958 318.222 33.376 318.858 32.968C319.494 32.548 320.256 32.338 321.144 32.338ZM321.144 33.67C319.5 33.67 318.678 34.882 318.678 37.306C318.678 39.718 319.494 40.924 321.126 40.924C322.758 40.924 323.574 39.712 323.574 37.288C323.574 34.876 322.764 33.67 321.144 33.67ZM332.556 32.338C333.42 32.338 334.092 32.596 334.572 33.112C335.064 33.628 335.31 34.336 335.31 35.236V42.04H333.654V35.47C333.654 34.798 333.528 34.324 333.276 34.048C333.024 33.772 332.652 33.634 332.16 33.634C331.656 33.634 331.212 33.778 330.828 34.066C330.444 34.354 330.084 34.768 329.748 35.308V42.04H328.092V32.554H329.514L329.658 33.958C329.994 33.454 330.408 33.058 330.9 32.77C331.404 32.482 331.956 32.338 332.556 32.338ZM346.967 32.338C348.299 32.338 349.331 32.782 350.063 33.67C350.807 34.558 351.179 35.764 351.179 37.288C351.179 38.272 351.011 39.142 350.675 39.898C350.339 40.642 349.853 41.224 349.217 41.644C348.581 42.052 347.825 42.256 346.949 42.256C345.617 42.256 344.579 41.812 343.835 40.924C343.091 40.036 342.719 38.83 342.719 37.306C342.719 36.322 342.887 35.458 343.223 34.714C343.559 33.958 344.045 33.376 344.681 32.968C345.317 32.548 346.079 32.338 346.967 32.338ZM346.967 33.67C345.323 33.67 344.501 34.882 344.501 37.306C344.501 39.718 345.317 40.924 346.949 40.924C348.581 40.924 349.397 39.712 349.397 37.288C349.397 34.876 348.587 33.67 346.967 33.67ZM358.036 32.338C358.372 32.338 358.684 32.374 358.972 32.446L358.666 34.066C358.378 33.994 358.102 33.958 357.838 33.958C357.25 33.958 356.776 34.174 356.416 34.606C356.056 35.038 355.774 35.71 355.57 36.622V42.04H353.914V32.554H355.336L355.498 34.48C355.75 33.772 356.092 33.238 356.524 32.878C356.956 32.518 357.46 32.338 358.036 32.338ZM369.077 32.338C369.641 32.338 370.157 32.422 370.625 32.59C371.093 32.746 371.543 33.004 371.975 33.364L371.183 34.408C370.847 34.168 370.517 33.994 370.193 33.886C369.881 33.766 369.533 33.706 369.149 33.706C368.381 33.706 367.781 34.012 367.349 34.624C366.929 35.236 366.719 36.142 366.719 37.342C366.719 38.542 366.929 39.43 367.349 40.006C367.769 40.57 368.369 40.852 369.149 40.852C369.521 40.852 369.863 40.798 370.175 40.69C370.487 40.57 370.835 40.384 371.219 40.132L371.975 41.212C371.111 41.908 370.145 42.256 369.077 42.256C367.793 42.256 366.779 41.824 366.035 40.96C365.303 40.096 364.937 38.902 364.937 37.378C364.937 36.37 365.105 35.488 365.441 34.732C365.777 33.976 366.251 33.388 366.863 32.968C367.487 32.548 368.225 32.338 369.077 32.338ZM376.107 42.256C375.495 42.256 375.009 42.076 374.649 41.716C374.301 41.344 374.127 40.828 374.127 40.168V28.738L375.783 28.54V40.132C375.783 40.396 375.825 40.588 375.909 40.708C376.005 40.828 376.161 40.888 376.377 40.888C376.605 40.888 376.809 40.852 376.989 40.78L377.421 41.932C377.025 42.148 376.587 42.256 376.107 42.256ZM381.147 32.554V42.04H379.491V32.554H381.147ZM380.301 28C380.649 28 380.931 28.108 381.147 28.324C381.363 28.54 381.471 28.81 381.471 29.134C381.471 29.458 381.363 29.728 381.147 29.944C380.931 30.148 380.649 30.25 380.301 30.25C379.965 30.25 379.689 30.148 379.473 29.944C379.257 29.728 379.149 29.458 379.149 29.134C379.149 28.81 379.257 28.54 379.473 28.324C379.689 28.108 379.965 28 380.301 28ZM388.027 32.338C388.591 32.338 389.107 32.422 389.575 32.59C390.043 32.746 390.493 33.004 390.925 33.364L390.133 34.408C389.797 34.168 389.467 33.994 389.143 33.886C388.831 33.766 388.483 33.706 388.099 33.706C387.331 33.706 386.731 34.012 386.299 34.624C385.879 35.236 385.669 36.142 385.669 37.342C385.669 38.542 385.879 39.43 386.299 40.006C386.719 40.57 387.319 40.852 388.099 40.852C388.471 40.852 388.813 40.798 389.125 40.69C389.437 40.57 389.785 40.384 390.169 40.132L390.925 41.212C390.061 41.908 389.095 42.256 388.027 42.256C386.743 42.256 385.729 41.824 384.985 40.96C384.253 40.096 383.887 38.902 383.887 37.378C383.887 36.37 384.055 35.488 384.391 34.732C384.727 33.976 385.201 33.388 385.813 32.968C386.437 32.548 387.175 32.338 388.027 32.338ZM394.822 28.54V42.04H393.166V28.738L394.822 28.54ZM400.276 32.554L396.784 36.748L400.672 42.04H398.692L394.93 36.856L398.422 32.554H400.276ZM404.863 32.338C405.511 32.338 406.093 32.428 406.609 32.608C407.125 32.788 407.617 33.058 408.085 33.418L407.383 34.462C406.951 34.186 406.537 33.982 406.141 33.85C405.757 33.718 405.349 33.652 404.917 33.652C404.377 33.652 403.951 33.766 403.639 33.994C403.327 34.21 403.171 34.51 403.171 34.894C403.171 35.278 403.315 35.578 403.603 35.794C403.903 36.01 404.437 36.22 405.205 36.424C406.261 36.688 407.047 37.048 407.563 37.504C408.091 37.96 408.355 38.584 408.355 39.376C408.355 40.312 407.989 41.026 407.257 41.518C406.537 42.01 405.655 42.256 404.611 42.256C403.171 42.256 401.977 41.842 401.029 41.014L401.911 40.006C402.715 40.618 403.603 40.924 404.575 40.924C405.199 40.924 405.691 40.798 406.051 40.546C406.423 40.282 406.609 39.928 406.609 39.484C406.609 39.16 406.543 38.902 406.411 38.71C406.279 38.506 406.051 38.332 405.727 38.188C405.403 38.032 404.929 37.87 404.305 37.702C403.297 37.438 402.565 37.084 402.109 36.64C401.665 36.196 401.443 35.632 401.443 34.948C401.443 34.456 401.587 34.012 401.875 33.616C402.175 33.208 402.583 32.896 403.099 32.68C403.627 32.452 404.215 32.338 404.863 32.338ZM419.019 32.338C420.351 32.338 421.383 32.782 422.115 33.67C422.859 34.558 423.231 35.764 423.231 37.288C423.231 38.272 423.063 39.142 422.727 39.898C422.391 40.642 421.905 41.224 421.269 41.644C420.633 42.052 419.877 42.256 419.001 42.256C417.669 42.256 416.631 41.812 415.887 40.924C415.143 40.036 414.771 38.83 414.771 37.306C414.771 36.322 414.939 35.458 415.275 34.714C415.611 33.958 416.097 33.376 416.733 32.968C417.369 32.548 418.131 32.338 419.019 32.338ZM419.019 33.67C417.375 33.67 416.553 34.882 416.553 37.306C416.553 39.718 417.369 40.924 419.001 40.924C420.633 40.924 421.449 39.712 421.449 37.288C421.449 34.876 420.639 33.67 419.019 33.67ZM430.431 32.338C431.295 32.338 431.967 32.596 432.447 33.112C432.939 33.628 433.185 34.336 433.185 35.236V42.04H431.529V35.47C431.529 34.798 431.403 34.324 431.151 34.048C430.899 33.772 430.527 33.634 430.035 33.634C429.531 33.634 429.087 33.778 428.703 34.066C428.319 34.354 427.959 34.768 427.623 35.308V42.04H425.967V32.554H427.389L427.533 33.958C427.869 33.454 428.283 33.058 428.775 32.77C429.279 32.482 429.831 32.338 430.431 32.338ZM445.076 42.094C444.704 43.198 444.182 44.068 443.51 44.704C442.85 45.352 441.902 45.742 440.666 45.874L440.486 44.578C441.11 44.47 441.608 44.314 441.98 44.11C442.352 43.906 442.646 43.642 442.862 43.318C443.09 43.006 443.3 42.58 443.492 42.04H442.934L439.748 32.554H441.512L444.05 40.834L446.534 32.554H448.244L445.076 42.094ZM453.631 32.338C454.963 32.338 455.995 32.782 456.727 33.67C457.471 34.558 457.843 35.764 457.843 37.288C457.843 38.272 457.675 39.142 457.339 39.898C457.003 40.642 456.517 41.224 455.881 41.644C455.245 42.052 454.489 42.256 453.613 42.256C452.281 42.256 451.243 41.812 450.499 40.924C449.755 40.036 449.383 38.83 449.383 37.306C449.383 36.322 449.551 35.458 449.887 34.714C450.223 33.958 450.709 33.376 451.345 32.968C451.981 32.548 452.743 32.338 453.631 32.338ZM453.631 33.67C451.987 33.67 451.165 34.882 451.165 37.306C451.165 39.718 451.981 40.924 453.613 40.924C455.245 40.924 456.061 39.712 456.061 37.288C456.061 34.876 455.251 33.67 453.631 33.67ZM467.635 42.04H466.213L466.087 40.564C465.727 41.152 465.313 41.584 464.845 41.86C464.377 42.124 463.807 42.256 463.135 42.256C462.307 42.256 461.659 42.004 461.191 41.5C460.723 40.996 460.489 40.282 460.489 39.358V32.554H462.145V39.178C462.145 39.826 462.259 40.288 462.487 40.564C462.715 40.828 463.087 40.96 463.603 40.96C464.527 40.96 465.319 40.414 465.979 39.322V32.554H467.635V42.04ZM475.177 32.338C475.513 32.338 475.825 32.374 476.113 32.446L475.807 34.066C475.519 33.994 475.243 33.958 474.979 33.958C474.391 33.958 473.917 34.174 473.557 34.606C473.197 35.038 472.915 35.71 472.711 36.622V42.04H471.055V32.554H472.477L472.639 34.48C472.891 33.772 473.233 33.238 473.665 32.878C474.097 32.518 474.601 32.338 475.177 32.338ZM487.118 32.338C488.33 32.338 489.218 32.77 489.782 33.634C490.346 34.498 490.628 35.716 490.628 37.288C490.628 38.776 490.304 39.976 489.656 40.888C489.008 41.8 488.09 42.256 486.902 42.256C485.846 42.256 485.018 41.896 484.418 41.176V45.676L482.762 45.874V32.554H484.184L484.31 33.832C484.658 33.352 485.078 32.986 485.57 32.734C486.062 32.47 486.578 32.338 487.118 32.338ZM486.506 40.906C488.066 40.906 488.846 39.7 488.846 37.288C488.846 34.864 488.132 33.652 486.704 33.652C486.236 33.652 485.81 33.79 485.426 34.066C485.042 34.342 484.706 34.696 484.418 35.128V39.754C484.658 40.126 484.958 40.414 485.318 40.618C485.678 40.81 486.074 40.906 486.506 40.906ZM499.664 39.826C499.664 40.21 499.73 40.498 499.862 40.69C499.994 40.87 500.192 41.008 500.456 41.104L500.078 42.256C499.586 42.196 499.19 42.058 498.89 41.842C498.59 41.626 498.368 41.29 498.224 40.834C497.588 41.782 496.646 42.256 495.398 42.256C494.462 42.256 493.724 41.992 493.184 41.464C492.644 40.936 492.374 40.246 492.374 39.394C492.374 38.386 492.734 37.612 493.454 37.072C494.186 36.532 495.218 36.262 496.55 36.262H498.008V35.56C498.008 34.888 497.846 34.408 497.522 34.12C497.198 33.832 496.7 33.688 496.028 33.688C495.332 33.688 494.48 33.856 493.472 34.192L493.058 32.986C494.234 32.554 495.326 32.338 496.334 32.338C497.45 32.338 498.284 32.614 498.836 33.166C499.388 33.706 499.664 34.48 499.664 35.488V39.826ZM495.776 41.014C496.724 41.014 497.468 40.522 498.008 39.538V37.36H496.766C495.014 37.36 494.138 38.008 494.138 39.304C494.138 39.868 494.276 40.294 494.552 40.582C494.828 40.87 495.236 41.014 495.776 41.014ZM510.539 32.986C510.179 33.106 509.783 33.184 509.351 33.22C508.919 33.256 508.391 33.274 507.767 33.274C508.883 33.778 509.441 34.576 509.441 35.668C509.441 36.616 509.117 37.39 508.469 37.99C507.821 38.59 506.939 38.89 505.823 38.89C505.391 38.89 504.989 38.83 504.617 38.71C504.473 38.806 504.359 38.938 504.275 39.106C504.191 39.262 504.149 39.424 504.149 39.592C504.149 40.108 504.563 40.366 505.391 40.366H506.903C507.539 40.366 508.103 40.48 508.595 40.708C509.087 40.936 509.465 41.248 509.729 41.644C510.005 42.04 510.143 42.49 510.143 42.994C510.143 43.918 509.765 44.626 509.009 45.118C508.253 45.622 507.149 45.874 505.697 45.874C504.677 45.874 503.867 45.766 503.267 45.55C502.679 45.346 502.259 45.034 502.007 44.614C501.755 44.194 501.629 43.654 501.629 42.994H503.123C503.123 43.378 503.195 43.678 503.339 43.894C503.483 44.122 503.741 44.29 504.113 44.398C504.485 44.518 505.013 44.578 505.697 44.578C506.693 44.578 507.401 44.452 507.821 44.2C508.253 43.96 508.469 43.594 508.469 43.102C508.469 42.658 508.301 42.322 507.965 42.094C507.629 41.866 507.161 41.752 506.561 41.752H505.067C504.263 41.752 503.651 41.584 503.231 41.248C502.823 40.9 502.619 40.468 502.619 39.952C502.619 39.64 502.709 39.34 502.889 39.052C503.069 38.764 503.327 38.506 503.663 38.278C503.111 37.99 502.703 37.636 502.439 37.216C502.187 36.784 502.061 36.262 502.061 35.65C502.061 35.014 502.217 34.444 502.529 33.94C502.853 33.436 503.291 33.046 503.843 32.77C504.407 32.482 505.031 32.338 505.715 32.338C506.459 32.35 507.083 32.326 507.587 32.266C508.091 32.194 508.505 32.104 508.829 31.996C509.165 31.876 509.573 31.708 510.053 31.492L510.539 32.986ZM505.715 33.526C505.091 33.526 504.605 33.724 504.257 34.12C503.921 34.504 503.753 35.014 503.753 35.65C503.753 36.298 503.927 36.82 504.275 37.216C504.623 37.6 505.115 37.792 505.751 37.792C506.399 37.792 506.891 37.606 507.227 37.234C507.575 36.85 507.749 36.316 507.749 35.632C507.749 34.228 507.071 33.526 505.715 33.526ZM519.123 37.018C519.123 37.294 519.111 37.576 519.087 37.864H513.039C513.111 38.908 513.375 39.676 513.831 40.168C514.287 40.66 514.875 40.906 515.595 40.906C516.051 40.906 516.471 40.84 516.855 40.708C517.239 40.576 517.641 40.366 518.061 40.078L518.781 41.068C517.773 41.86 516.669 42.256 515.469 42.256C514.149 42.256 513.117 41.824 512.373 40.96C511.641 40.096 511.275 38.908 511.275 37.396C511.275 36.412 511.431 35.542 511.743 34.786C512.067 34.018 512.523 33.418 513.111 32.986C513.711 32.554 514.413 32.338 515.217 32.338C516.477 32.338 517.443 32.752 518.115 33.58C518.787 34.408 519.123 35.554 519.123 37.018ZM517.485 36.532C517.485 35.596 517.299 34.882 516.927 34.39C516.555 33.898 515.997 33.652 515.253 33.652C513.897 33.652 513.159 34.648 513.039 36.64H517.485V36.532ZM530.33 42.094C529.958 43.198 529.436 44.068 528.764 44.704C528.104 45.352 527.156 45.742 525.92 45.874L525.74 44.578C526.364 44.47 526.862 44.314 527.234 44.11C527.606 43.906 527.9 43.642 528.116 43.318C528.344 43.006 528.554 42.58 528.746 42.04H528.188L525.002 32.554H526.766L529.304 40.834L531.788 32.554H533.498L530.33 42.094ZM538.885 32.338C540.217 32.338 541.249 32.782 541.981 33.67C542.725 34.558 543.097 35.764 543.097 37.288C543.097 38.272 542.929 39.142 542.593 39.898C542.257 40.642 541.771 41.224 541.135 41.644C540.499 42.052 539.743 42.256 538.867 42.256C537.535 42.256 536.497 41.812 535.753 40.924C535.009 40.036 534.637 38.83 534.637 37.306C534.637 36.322 534.805 35.458 535.141 34.714C535.477 33.958 535.963 33.376 536.599 32.968C537.235 32.548 537.997 32.338 538.885 32.338ZM538.885 33.67C537.241 33.67 536.419 34.882 536.419 37.306C536.419 39.718 537.235 40.924 538.867 40.924C540.499 40.924 541.315 39.712 541.315 37.288C541.315 34.876 540.505 33.67 538.885 33.67ZM552.888 42.04H551.466L551.34 40.564C550.98 41.152 550.566 41.584 550.098 41.86C549.63 42.124 549.06 42.256 548.388 42.256C547.56 42.256 546.912 42.004 546.444 41.5C545.976 40.996 545.742 40.282 545.742 39.358V32.554H547.398V39.178C547.398 39.826 547.512 40.288 547.74 40.564C547.968 40.828 548.34 40.96 548.856 40.96C549.78 40.96 550.572 40.414 551.232 39.322V32.554H552.888V42.04ZM571.909 32.554L569.749 42.04H567.499L565.843 34.048L564.133 42.04H561.937L559.723 32.554H561.379L563.089 40.888L564.961 32.554H566.815L568.597 40.888L570.325 32.554H571.909ZM575.631 32.554V42.04H573.975V32.554H575.631ZM574.785 28C575.133 28 575.415 28.108 575.631 28.324C575.847 28.54 575.955 28.81 575.955 29.134C575.955 29.458 575.847 29.728 575.631 29.944C575.415 30.148 575.133 30.25 574.785 30.25C574.449 30.25 574.173 30.148 573.957 29.944C573.741 29.728 573.633 29.458 573.633 29.134C573.633 28.81 573.741 28.54 573.957 28.324C574.173 28.108 574.449 28 574.785 28ZM580.945 42.256C580.333 42.256 579.847 42.076 579.487 41.716C579.139 41.344 578.965 40.828 578.965 40.168V28.738L580.621 28.54V40.132C580.621 40.396 580.663 40.588 580.747 40.708C580.843 40.828 580.999 40.888 581.215 40.888C581.443 40.888 581.647 40.852 581.827 40.78L582.259 41.932C581.863 42.148 581.425 42.256 580.945 42.256ZM586.219 42.256C585.607 42.256 585.121 42.076 584.761 41.716C584.413 41.344 584.239 40.828 584.239 40.168V28.738L585.895 28.54V40.132C585.895 40.396 585.937 40.588 586.021 40.708C586.117 40.828 586.273 40.888 586.489 40.888C586.717 40.888 586.921 40.852 587.101 40.78L587.533 41.932C587.137 42.148 586.699 42.256 586.219 42.256ZM602.016 32.986C601.656 33.106 601.26 33.184 600.828 33.22C600.396 33.256 599.868 33.274 599.244 33.274C600.36 33.778 600.918 34.576 600.918 35.668C600.918 36.616 600.594 37.39 599.946 37.99C599.298 38.59 598.416 38.89 597.3 38.89C596.868 38.89 596.466 38.83 596.094 38.71C595.95 38.806 595.836 38.938 595.752 39.106C595.668 39.262 595.626 39.424 595.626 39.592C595.626 40.108 596.04 40.366 596.868 40.366H598.38C599.016 40.366 599.58 40.48 600.072 40.708C600.564 40.936 600.942 41.248 601.206 41.644C601.482 42.04 601.62 42.49 601.62 42.994C601.62 43.918 601.242 44.626 600.486 45.118C599.73 45.622 598.626 45.874 597.174 45.874C596.154 45.874 595.344 45.766 594.744 45.55C594.156 45.346 593.736 45.034 593.484 44.614C593.232 44.194 593.106 43.654 593.106 42.994H594.6C594.6 43.378 594.672 43.678 594.816 43.894C594.96 44.122 595.218 44.29 595.59 44.398C595.962 44.518 596.49 44.578 597.174 44.578C598.17 44.578 598.878 44.452 599.298 44.2C599.73 43.96 599.946 43.594 599.946 43.102C599.946 42.658 599.778 42.322 599.442 42.094C599.106 41.866 598.638 41.752 598.038 41.752H596.544C595.74 41.752 595.128 41.584 594.708 41.248C594.3 40.9 594.096 40.468 594.096 39.952C594.096 39.64 594.186 39.34 594.366 39.052C594.546 38.764 594.804 38.506 595.14 38.278C594.588 37.99 594.18 37.636 593.916 37.216C593.664 36.784 593.538 36.262 593.538 35.65C593.538 35.014 593.694 34.444 594.006 33.94C594.33 33.436 594.768 33.046 595.32 32.77C595.884 32.482 596.508 32.338 597.192 32.338C597.936 32.35 598.56 32.326 599.064 32.266C599.568 32.194 599.982 32.104 600.306 31.996C600.642 31.876 601.05 31.708 601.53 31.492L602.016 32.986ZM597.192 33.526C596.568 33.526 596.082 33.724 595.734 34.12C595.398 34.504 595.23 35.014 595.23 35.65C595.23 36.298 595.404 36.82 595.752 37.216C596.1 37.6 596.592 37.792 597.228 37.792C597.876 37.792 598.368 37.606 598.704 37.234C599.052 36.85 599.226 36.316 599.226 35.632C599.226 34.228 598.548 33.526 597.192 33.526ZM610.6 37.018C610.6 37.294 610.588 37.576 610.564 37.864H604.516C604.588 38.908 604.852 39.676 605.308 40.168C605.764 40.66 606.352 40.906 607.072 40.906C607.528 40.906 607.948 40.84 608.332 40.708C608.716 40.576 609.118 40.366 609.538 40.078L610.258 41.068C609.25 41.86 608.146 42.256 606.946 42.256C605.626 42.256 604.594 41.824 603.85 40.96C603.118 40.096 602.752 38.908 602.752 37.396C602.752 36.412 602.908 35.542 603.22 34.786C603.544 34.018 604 33.418 604.588 32.986C605.188 32.554 605.89 32.338 606.694 32.338C607.954 32.338 608.92 32.752 609.592 33.58C610.264 34.408 610.6 35.554 610.6 37.018ZM608.962 36.532C608.962 35.596 608.776 34.882 608.404 34.39C608.032 33.898 607.474 33.652 606.73 33.652C605.374 33.652 604.636 34.648 604.516 36.64H608.962V36.532ZM618.033 41.608C617.409 42.04 616.701 42.256 615.909 42.256C615.105 42.256 614.475 42.028 614.019 41.572C613.575 41.104 613.353 40.432 613.353 39.556V33.832H611.697V32.554H613.353V30.412L615.009 30.214V32.554H617.259L617.079 33.832H615.009V39.484C615.009 39.976 615.093 40.336 615.261 40.564C615.441 40.78 615.735 40.888 616.143 40.888C616.515 40.888 616.935 40.762 617.403 40.51L618.033 41.608ZM628.868 32.338C630.08 32.338 630.968 32.77 631.532 33.634C632.096 34.498 632.378 35.716 632.378 37.288C632.378 38.776 632.054 39.976 631.406 40.888C630.758 41.8 629.84 42.256 628.652 42.256C627.596 42.256 626.768 41.896 626.168 41.176V45.676L624.512 45.874V32.554H625.934L626.06 33.832C626.408 33.352 626.828 32.986 627.32 32.734C627.812 32.47 628.328 32.338 628.868 32.338ZM628.256 40.906C629.816 40.906 630.596 39.7 630.596 37.288C630.596 34.864 629.882 33.652 628.454 33.652C627.986 33.652 627.56 33.79 627.176 34.066C626.792 34.342 626.456 34.696 626.168 35.128V39.754C626.408 40.126 626.708 40.414 627.068 40.618C627.428 40.81 627.824 40.906 628.256 40.906ZM641.414 39.826C641.414 40.21 641.48 40.498 641.612 40.69C641.744 40.87 641.942 41.008 642.206 41.104L641.828 42.256C641.336 42.196 640.94 42.058 640.64 41.842C640.34 41.626 640.118 41.29 639.974 40.834C639.338 41.782 638.396 42.256 637.148 42.256C636.212 42.256 635.474 41.992 634.934 41.464C634.394 40.936 634.124 40.246 634.124 39.394C634.124 38.386 634.484 37.612 635.204 37.072C635.936 36.532 636.968 36.262 638.3 36.262H639.758V35.56C639.758 34.888 639.596 34.408 639.272 34.12C638.948 33.832 638.45 33.688 637.778 33.688C637.082 33.688 636.23 33.856 635.222 34.192L634.808 32.986C635.984 32.554 637.076 32.338 638.084 32.338C639.2 32.338 640.034 32.614 640.586 33.166C641.138 33.706 641.414 34.48 641.414 35.488V39.826ZM637.526 41.014C638.474 41.014 639.218 40.522 639.758 39.538V37.36H638.516C636.764 37.36 635.888 38.008 635.888 39.304C635.888 39.868 636.026 40.294 636.302 40.582C636.578 40.87 636.986 41.014 637.526 41.014ZM646.471 32.554V42.04H644.815V32.554H646.471ZM645.625 28C645.973 28 646.255 28.108 646.471 28.324C646.687 28.54 646.795 28.81 646.795 29.134C646.795 29.458 646.687 29.728 646.471 29.944C646.255 30.148 645.973 30.25 645.625 30.25C645.289 30.25 645.013 30.148 644.797 29.944C644.581 29.728 644.473 29.458 644.473 29.134C644.473 28.81 644.581 28.54 644.797 28.324C645.013 28.108 645.289 28 645.625 28ZM657.239 28.738V42.04H655.781L655.619 40.726C655.307 41.206 654.917 41.584 654.449 41.86C653.981 42.124 653.459 42.256 652.883 42.256C651.755 42.256 650.873 41.812 650.237 40.924C649.613 40.036 649.301 38.842 649.301 37.342C649.301 36.37 649.451 35.506 649.751 34.75C650.051 33.994 650.483 33.406 651.047 32.986C651.611 32.554 652.271 32.338 653.027 32.338C653.999 32.338 654.851 32.728 655.583 33.508V28.54L657.239 28.738ZM653.243 40.942C653.747 40.942 654.179 40.828 654.539 40.6C654.899 40.36 655.247 40.006 655.583 39.538V34.894C655.271 34.486 654.935 34.18 654.575 33.976C654.227 33.76 653.831 33.652 653.387 33.652C652.655 33.652 652.085 33.958 651.677 34.57C651.281 35.182 651.083 36.094 651.083 37.306C651.083 38.53 651.269 39.442 651.641 40.042C652.013 40.642 652.547 40.942 653.243 40.942ZM661.085 39.754C661.445 39.754 661.745 39.874 661.985 40.114C662.225 40.354 662.345 40.648 662.345 40.996C662.345 41.344 662.225 41.644 661.985 41.896C661.745 42.136 661.445 42.256 661.085 42.256C660.737 42.256 660.443 42.136 660.203 41.896C659.963 41.644 659.843 41.344 659.843 40.996C659.843 40.648 659.963 40.354 660.203 40.114C660.443 39.874 660.737 39.754 661.085 39.754Z" fill="#222222"/>
</svg>
