<svg width="188" height="60" viewBox="0 0 188 60" fill="none" xmlns="http://www.w3.org/2000/svg">
<path d="M22.7706 0C9.22969 0 0 9.44099 0 23.2919C0 36.8944 9.41186 46.2112 22.7706 46.2112C28.7821 46.2112 34.7935 44.9689 40.5014 41.8634V19.3789H24.0458V26.4596H32.8504V36.8323C29.8143 38.5714 26.0496 39.1304 22.8314 39.1304C13.6017 39.1304 8.01526 31.8633 8.01526 22.795C8.01526 14.0373 13.966 7.08074 22.7706 7.08074C26.7783 7.08074 31.0895 8.50931 34.0041 11.3665L39.6513 5.52795C35.0971 1.30435 28.7214 0 22.7706 0Z" fill="#222222"/>
<path d="M62.4009 14.5342C58.5754 14.5342 55.3571 16.5839 53.7784 20H53.6569V15.2795H46.3703V45.0932H53.6569V29.5652C53.6569 25.5901 55.9644 21.6149 61.49 21.6149C62.583 21.6149 63.6153 21.8012 65.0119 22.1739V14.9689C64.0403 14.7205 63.4938 14.5342 62.4009 14.5342Z" fill="#222222"/>
<path d="M79.7676 14.5342C74.0597 14.5342 69.9914 16.5838 67.3803 19.3168L71.2058 23.2298C73.2096 21.3665 75.9421 20.1242 78.9782 20.1242C82.9858 20.1242 85.6576 22.1739 85.6576 25.6522V26.5217H83.4109C70.9022 26.5217 65.498 30 65.498 36.8944C65.498 42.3603 70.1128 45.8385 76.1243 45.8385C80.0105 45.8385 83.4109 44.3478 85.4754 40.9938H85.6576V45.0932H92.2155V27.2671C92.2155 20.2484 89.7259 14.5342 79.7676 14.5342ZM72.7846 36.3354C72.7846 33.1677 76.6708 31.7391 83.1073 31.7391H85.2325V33.6025C85.2325 37.3913 82.9251 40.2484 77.9459 40.2484C75.2134 40.2484 72.7846 38.882 72.7846 36.3354Z" fill="#222222"/>
<path d="M93.5783 15.2795L105.48 45.0932H113.252L124.728 15.2795H117.26L109.427 36.1491H109.305L101.533 15.2795H93.5783Z" fill="#222222"/>
<path d="M130.187 0.683228C127.576 0.683228 125.572 2.73292 125.572 5.15528C125.572 7.57764 127.576 9.62733 130.187 9.62733C132.798 9.62733 134.923 7.82609 134.923 5.15528C134.923 2.6087 132.858 0.683228 130.187 0.683228ZM126.604 15.2795V45.0932H133.891V15.2795H126.604Z" fill="#222222"/>
<path d="M142.337 6.64596V15.2795H136.326V21.6149H142.337V35.5901C142.337 43.1056 145.009 45.8385 151.87 45.8385C153.51 45.8385 156.242 45.528 157.639 44.8447V38.5714C157.032 39.0683 155.514 39.5031 153.692 39.5031C150.838 39.5031 149.624 38.0124 149.624 34.8447V21.6149H157.639V15.2795H149.624V6.64596H142.337Z" fill="#222222"/>
<path d="M156.85 15.2795L169.298 45.3416L168.023 48.5714C166.687 51.8634 165.958 53.2919 162.133 53.2919C160.857 53.2919 159.582 52.9814 158.429 52.5466L157.518 59.2547C159.339 59.7516 161.222 60 163.104 60C170.391 60 172.334 56.3354 174.702 50.1863L188 15.2795H180.41L173.123 35.9627H173.002L164.865 15.2795H156.85Z" fill="#222222"/>
</svg>
