<svg width="540" height="28" viewBox="0 0 540 28" fill="none" xmlns="http://www.w3.org/2000/svg">
<path d="M475.411 4.382C476.155 4.382 476.779 4.478 477.283 4.67C477.799 4.862 478.321 5.174 478.849 5.606L477.913 6.704C477.157 6.092 476.359 5.786 475.519 5.786C474.487 5.786 473.653 6.182 473.017 6.974C472.393 7.766 472.081 9.038 472.081 10.79C472.081 12.494 472.393 13.754 473.017 14.57C473.641 15.374 474.469 15.776 475.501 15.776C476.029 15.776 476.491 15.686 476.887 15.506C477.283 15.326 477.703 15.074 478.147 14.75L478.993 15.83C478.609 16.226 478.117 16.556 477.517 16.82C476.917 17.084 476.227 17.216 475.447 17.216C474.439 17.216 473.539 16.97 472.747 16.478C471.967 15.974 471.355 15.242 470.911 14.282C470.479 13.31 470.263 12.146 470.263 10.79C470.263 9.434 470.491 8.276 470.947 7.316C471.403 6.344 472.021 5.612 472.801 5.12C473.581 4.628 474.451 4.382 475.411 4.382ZM484.268 7.298C485.6 7.298 486.632 7.742 487.364 8.63C488.108 9.518 488.48 10.724 488.48 12.248C488.48 13.232 488.312 14.102 487.976 14.858C487.64 15.602 487.154 16.184 486.518 16.604C485.882 17.012 485.126 17.216 484.25 17.216C482.918 17.216 481.88 16.772 481.136 15.884C480.392 14.996 480.02 13.79 480.02 12.266C480.02 11.282 480.188 10.418 480.524 9.674C480.86 8.918 481.346 8.336 481.982 7.928C482.618 7.508 483.38 7.298 484.268 7.298ZM484.268 8.63C482.624 8.63 481.802 9.842 481.802 12.266C481.802 14.678 482.618 15.884 484.25 15.884C485.882 15.884 486.698 14.672 486.698 12.248C486.698 9.836 485.888 8.63 484.268 8.63ZM495.68 7.298C496.544 7.298 497.216 7.556 497.696 8.072C498.188 8.588 498.434 9.296 498.434 10.196V17H496.778V10.43C496.778 9.758 496.652 9.284 496.4 9.008C496.148 8.732 495.776 8.594 495.284 8.594C494.78 8.594 494.336 8.738 493.952 9.026C493.568 9.314 493.208 9.728 492.872 10.268V17H491.216V7.514H492.638L492.782 8.918C493.118 8.414 493.532 8.018 494.024 7.73C494.528 7.442 495.08 7.298 495.68 7.298ZM506.551 16.568C505.927 17 505.219 17.216 504.427 17.216C503.623 17.216 502.993 16.988 502.537 16.532C502.093 16.064 501.871 15.392 501.871 14.516V8.792H500.215V7.514H501.871V5.372L503.527 5.174V7.514H505.777L505.597 8.792H503.527V14.444C503.527 14.936 503.611 15.296 503.779 15.524C503.959 15.74 504.253 15.848 504.661 15.848C505.033 15.848 505.453 15.722 505.921 15.47L506.551 16.568ZM514.534 14.786C514.534 15.17 514.6 15.458 514.732 15.65C514.864 15.83 515.062 15.968 515.326 16.064L514.948 17.216C514.456 17.156 514.06 17.018 513.76 16.802C513.46 16.586 513.238 16.25 513.094 15.794C512.458 16.742 511.516 17.216 510.268 17.216C509.332 17.216 508.594 16.952 508.054 16.424C507.514 15.896 507.244 15.206 507.244 14.354C507.244 13.346 507.604 12.572 508.324 12.032C509.056 11.492 510.088 11.222 511.42 11.222H512.878V10.52C512.878 9.848 512.716 9.368 512.392 9.08C512.068 8.792 511.57 8.648 510.898 8.648C510.202 8.648 509.35 8.816 508.342 9.152L507.928 7.946C509.104 7.514 510.196 7.298 511.204 7.298C512.32 7.298 513.154 7.574 513.706 8.126C514.258 8.666 514.534 9.44 514.534 10.448V14.786ZM510.646 15.974C511.594 15.974 512.338 15.482 512.878 14.498V12.32H511.636C509.884 12.32 509.008 12.968 509.008 14.264C509.008 14.828 509.146 15.254 509.422 15.542C509.698 15.83 510.106 15.974 510.646 15.974ZM521.391 7.298C521.955 7.298 522.471 7.382 522.939 7.55C523.407 7.706 523.857 7.964 524.289 8.324L523.497 9.368C523.161 9.128 522.831 8.954 522.507 8.846C522.195 8.726 521.847 8.666 521.463 8.666C520.695 8.666 520.095 8.972 519.663 9.584C519.243 10.196 519.033 11.102 519.033 12.302C519.033 13.502 519.243 14.39 519.663 14.966C520.083 15.53 520.683 15.812 521.463 15.812C521.835 15.812 522.177 15.758 522.489 15.65C522.801 15.53 523.149 15.344 523.533 15.092L524.289 16.172C523.425 16.868 522.459 17.216 521.391 17.216C520.107 17.216 519.093 16.784 518.349 15.92C517.617 15.056 517.251 13.862 517.251 12.338C517.251 11.33 517.419 10.448 517.755 9.692C518.091 8.936 518.565 8.348 519.177 7.928C519.801 7.508 520.539 7.298 521.391 7.298ZM531.318 16.568C530.694 17 529.986 17.216 529.194 17.216C528.39 17.216 527.76 16.988 527.304 16.532C526.86 16.064 526.638 15.392 526.638 14.516V8.792H524.982V7.514H526.638V5.372L528.294 5.174V7.514H530.544L530.364 8.792H528.294V14.444C528.294 14.936 528.378 15.296 528.546 15.524C528.726 15.74 529.02 15.848 529.428 15.848C529.8 15.848 530.22 15.722 530.688 15.47L531.318 16.568ZM535.608 7.298C536.256 7.298 536.838 7.388 537.354 7.568C537.87 7.748 538.362 8.018 538.83 8.378L538.128 9.422C537.696 9.146 537.282 8.942 536.886 8.81C536.502 8.678 536.094 8.612 535.662 8.612C535.122 8.612 534.696 8.726 534.384 8.954C534.072 9.17 533.916 9.47 533.916 9.854C533.916 10.238 534.06 10.538 534.348 10.754C534.648 10.97 535.182 11.18 535.95 11.384C537.006 11.648 537.792 12.008 538.308 12.464C538.836 12.92 539.1 13.544 539.1 14.336C539.1 15.272 538.734 15.986 538.002 16.478C537.282 16.97 536.4 17.216 535.356 17.216C533.916 17.216 532.722 16.802 531.774 15.974L532.656 14.966C533.46 15.578 534.348 15.884 535.32 15.884C535.944 15.884 536.436 15.758 536.796 15.506C537.168 15.242 537.354 14.888 537.354 14.444C537.354 14.12 537.288 13.862 537.156 13.67C537.024 13.466 536.796 13.292 536.472 13.148C536.148 12.992 535.674 12.83 535.05 12.662C534.042 12.398 533.31 12.044 532.854 11.6C532.41 11.156 532.188 10.592 532.188 9.908C532.188 9.416 532.332 8.972 532.62 8.576C532.92 8.168 533.328 7.856 533.844 7.64C534.372 7.412 534.96 7.298 535.608 7.298Z" fill="white"/>
<path d="M344.659 17L343.723 13.886H339.025L338.089 17H336.361L340.339 4.598H342.499L346.459 17H344.659ZM339.439 12.5H343.309L341.383 6.02L339.439 12.5ZM352.619 7.298C353.699 7.298 354.557 7.736 355.193 8.612C355.829 9.476 356.147 10.688 356.147 12.248C356.147 13.232 355.997 14.102 355.697 14.858C355.397 15.602 354.965 16.184 354.401 16.604C353.837 17.012 353.177 17.216 352.421 17.216C351.425 17.216 350.585 16.796 349.901 15.956L349.739 17H348.281V3.698L349.937 3.5V8.702C350.621 7.766 351.515 7.298 352.619 7.298ZM352.025 15.902C352.757 15.902 353.327 15.608 353.735 15.02C354.155 14.42 354.365 13.496 354.365 12.248C354.365 10.964 354.173 10.04 353.789 9.476C353.405 8.9 352.859 8.612 352.151 8.612C351.311 8.612 350.573 9.104 349.937 10.088V14.624C350.189 15.02 350.495 15.332 350.855 15.56C351.227 15.788 351.617 15.902 352.025 15.902ZM362.533 7.298C363.865 7.298 364.897 7.742 365.629 8.63C366.373 9.518 366.745 10.724 366.745 12.248C366.745 13.232 366.577 14.102 366.241 14.858C365.905 15.602 365.419 16.184 364.783 16.604C364.147 17.012 363.391 17.216 362.515 17.216C361.183 17.216 360.145 16.772 359.401 15.884C358.657 14.996 358.285 13.79 358.285 12.266C358.285 11.282 358.453 10.418 358.789 9.674C359.125 8.918 359.611 8.336 360.247 7.928C360.883 7.508 361.645 7.298 362.533 7.298ZM362.533 8.63C360.889 8.63 360.067 9.842 360.067 12.266C360.067 14.678 360.883 15.884 362.515 15.884C364.147 15.884 364.963 14.672 364.963 12.248C364.963 9.836 364.153 8.63 362.533 8.63ZM376.537 17H375.115L374.989 15.524C374.629 16.112 374.215 16.544 373.747 16.82C373.279 17.084 372.709 17.216 372.037 17.216C371.209 17.216 370.561 16.964 370.093 16.46C369.625 15.956 369.391 15.242 369.391 14.318V7.514H371.047V14.138C371.047 14.786 371.161 15.248 371.389 15.524C371.617 15.788 371.989 15.92 372.505 15.92C373.429 15.92 374.221 15.374 374.881 14.282V7.514H376.537V17ZM384.745 16.568C384.121 17 383.413 17.216 382.621 17.216C381.817 17.216 381.187 16.988 380.731 16.532C380.287 16.064 380.065 15.392 380.065 14.516V8.792H378.409V7.514H380.065V5.372L381.721 5.174V7.514H383.971L383.791 8.792H381.721V14.444C381.721 14.936 381.805 15.296 381.973 15.524C382.153 15.74 382.447 15.848 382.855 15.848C383.227 15.848 383.647 15.722 384.115 15.47L384.745 16.568ZM399.811 13.022C399.811 13.85 399.637 14.582 399.289 15.218C398.953 15.842 398.455 16.334 397.795 16.694C397.147 17.042 396.367 17.216 395.455 17.216C394.075 17.216 393.007 16.838 392.251 16.082C391.507 15.314 391.135 14.294 391.135 13.022V4.598H392.845V12.896C392.845 13.856 393.061 14.576 393.493 15.056C393.925 15.536 394.579 15.776 395.455 15.776C396.343 15.776 397.003 15.542 397.435 15.074C397.867 14.594 398.083 13.868 398.083 12.896V4.598H399.811V13.022ZM405.629 7.298C406.277 7.298 406.859 7.388 407.375 7.568C407.891 7.748 408.383 8.018 408.851 8.378L408.149 9.422C407.717 9.146 407.303 8.942 406.907 8.81C406.523 8.678 406.115 8.612 405.683 8.612C405.143 8.612 404.717 8.726 404.405 8.954C404.093 9.17 403.937 9.47 403.937 9.854C403.937 10.238 404.081 10.538 404.369 10.754C404.669 10.97 405.203 11.18 405.971 11.384C407.027 11.648 407.813 12.008 408.329 12.464C408.857 12.92 409.121 13.544 409.121 14.336C409.121 15.272 408.755 15.986 408.023 16.478C407.303 16.97 406.421 17.216 405.377 17.216C403.937 17.216 402.743 16.802 401.795 15.974L402.677 14.966C403.481 15.578 404.369 15.884 405.341 15.884C405.965 15.884 406.457 15.758 406.817 15.506C407.189 15.242 407.375 14.888 407.375 14.444C407.375 14.12 407.309 13.862 407.177 13.67C407.045 13.466 406.817 13.292 406.493 13.148C406.169 12.992 405.695 12.83 405.071 12.662C404.063 12.398 403.331 12.044 402.875 11.6C402.431 11.156 402.209 10.592 402.209 9.908C402.209 9.416 402.353 8.972 402.641 8.576C402.941 8.168 403.349 7.856 403.865 7.64C404.393 7.412 404.981 7.298 405.629 7.298Z" fill="white"/>
<path d="M242.58 4.598L240.06 17H237.864L235.578 6.614L233.274 17H231.132L228.612 4.598H230.286L232.284 15.506L234.678 4.598H236.496L238.944 15.506L241.014 4.598H242.58ZM248.131 7.298C249.463 7.298 250.495 7.742 251.227 8.63C251.971 9.518 252.343 10.724 252.343 12.248C252.343 13.232 252.175 14.102 251.839 14.858C251.503 15.602 251.017 16.184 250.381 16.604C249.745 17.012 248.989 17.216 248.113 17.216C246.781 17.216 245.743 16.772 244.999 15.884C244.255 14.996 243.883 13.79 243.883 12.266C243.883 11.282 244.051 10.418 244.387 9.674C244.723 8.918 245.209 8.336 245.845 7.928C246.481 7.508 247.243 7.298 248.131 7.298ZM248.131 8.63C246.487 8.63 245.665 9.842 245.665 12.266C245.665 14.678 246.481 15.884 248.113 15.884C249.745 15.884 250.561 14.672 250.561 12.248C250.561 9.836 249.751 8.63 248.131 8.63ZM259.201 7.298C259.537 7.298 259.849 7.334 260.137 7.406L259.831 9.026C259.543 8.954 259.267 8.918 259.003 8.918C258.415 8.918 257.941 9.134 257.581 9.566C257.221 9.998 256.939 10.67 256.735 11.582V17H255.079V7.514H256.501L256.663 9.44C256.915 8.732 257.257 8.198 257.689 7.838C258.121 7.478 258.625 7.298 259.201 7.298ZM263.679 3.5V17H262.023V3.698L263.679 3.5ZM269.133 7.514L265.641 11.708L269.529 17H267.549L263.787 11.816L267.279 7.514H269.133ZM273.72 7.298C274.368 7.298 274.95 7.388 275.466 7.568C275.982 7.748 276.474 8.018 276.942 8.378L276.24 9.422C275.808 9.146 275.394 8.942 274.998 8.81C274.614 8.678 274.206 8.612 273.774 8.612C273.234 8.612 272.808 8.726 272.496 8.954C272.184 9.17 272.028 9.47 272.028 9.854C272.028 10.238 272.172 10.538 272.46 10.754C272.76 10.97 273.294 11.18 274.062 11.384C275.118 11.648 275.904 12.008 276.42 12.464C276.948 12.92 277.212 13.544 277.212 14.336C277.212 15.272 276.846 15.986 276.114 16.478C275.394 16.97 274.512 17.216 273.468 17.216C272.028 17.216 270.834 16.802 269.886 15.974L270.768 14.966C271.572 15.578 272.46 15.884 273.432 15.884C274.056 15.884 274.548 15.758 274.908 15.506C275.28 15.242 275.466 14.888 275.466 14.444C275.466 14.12 275.4 13.862 275.268 13.67C275.136 13.466 274.908 13.292 274.584 13.148C274.26 12.992 273.786 12.83 273.162 12.662C272.154 12.398 271.422 12.044 270.966 11.6C270.522 11.156 270.3 10.592 270.3 9.908C270.3 9.416 270.444 8.972 270.732 8.576C271.032 8.168 271.44 7.856 271.956 7.64C272.484 7.412 273.072 7.298 273.72 7.298Z" fill="white"/>
<path d="M116.534 4.598L116.336 5.966H111.53V10.016H115.706V11.384H111.53V15.632H116.678V17H109.82V4.598H116.534ZM122.998 11.924L126.292 17H124.294L121.972 12.986L119.614 17H117.742L121.054 11.996L118.12 7.514H120.064L122.044 10.988L124.042 7.514H125.914L122.998 11.924ZM132.455 7.298C133.667 7.298 134.555 7.73 135.119 8.594C135.683 9.458 135.965 10.676 135.965 12.248C135.965 13.736 135.641 14.936 134.993 15.848C134.345 16.76 133.427 17.216 132.239 17.216C131.183 17.216 130.355 16.856 129.755 16.136V20.636L128.099 20.834V7.514H129.521L129.647 8.792C129.995 8.312 130.415 7.946 130.907 7.694C131.399 7.43 131.915 7.298 132.455 7.298ZM131.843 15.866C133.403 15.866 134.183 14.66 134.183 12.248C134.183 9.824 133.469 8.612 132.041 8.612C131.573 8.612 131.147 8.75 130.763 9.026C130.379 9.302 130.043 9.656 129.755 10.088V14.714C129.995 15.086 130.295 15.374 130.655 15.578C131.015 15.77 131.411 15.866 131.843 15.866ZM140.676 17.216C140.064 17.216 139.578 17.036 139.218 16.676C138.87 16.304 138.696 15.788 138.696 15.128V3.698L140.352 3.5V15.092C140.352 15.356 140.394 15.548 140.478 15.668C140.574 15.788 140.73 15.848 140.946 15.848C141.174 15.848 141.378 15.812 141.558 15.74L141.99 16.892C141.594 17.108 141.156 17.216 140.676 17.216ZM147.536 7.298C148.868 7.298 149.9 7.742 150.632 8.63C151.376 9.518 151.748 10.724 151.748 12.248C151.748 13.232 151.58 14.102 151.244 14.858C150.908 15.602 150.422 16.184 149.786 16.604C149.15 17.012 148.394 17.216 147.518 17.216C146.186 17.216 145.148 16.772 144.404 15.884C143.66 14.996 143.288 13.79 143.288 12.266C143.288 11.282 143.456 10.418 143.792 9.674C144.128 8.918 144.614 8.336 145.25 7.928C145.886 7.508 146.648 7.298 147.536 7.298ZM147.536 8.63C145.892 8.63 145.07 9.842 145.07 12.266C145.07 14.678 145.886 15.884 147.518 15.884C149.15 15.884 149.966 14.672 149.966 12.248C149.966 9.836 149.156 8.63 147.536 8.63ZM158.605 7.298C158.941 7.298 159.253 7.334 159.541 7.406L159.235 9.026C158.947 8.954 158.671 8.918 158.407 8.918C157.819 8.918 157.345 9.134 156.985 9.566C156.625 9.998 156.343 10.67 156.139 11.582V17H154.483V7.514H155.905L156.067 9.44C156.319 8.732 156.661 8.198 157.093 7.838C157.525 7.478 158.029 7.298 158.605 7.298ZM168.046 11.978C168.046 12.254 168.034 12.536 168.01 12.824H161.962C162.034 13.868 162.298 14.636 162.754 15.128C163.21 15.62 163.798 15.866 164.518 15.866C164.974 15.866 165.394 15.8 165.778 15.668C166.162 15.536 166.564 15.326 166.984 15.038L167.704 16.028C166.696 16.82 165.592 17.216 164.392 17.216C163.072 17.216 162.04 16.784 161.296 15.92C160.564 15.056 160.198 13.868 160.198 12.356C160.198 11.372 160.354 10.502 160.666 9.746C160.99 8.978 161.446 8.378 162.034 7.946C162.634 7.514 163.336 7.298 164.14 7.298C165.4 7.298 166.366 7.712 167.038 8.54C167.71 9.368 168.046 10.514 168.046 11.978ZM166.408 11.492C166.408 10.556 166.222 9.842 165.85 9.35C165.478 8.858 164.92 8.612 164.176 8.612C162.82 8.612 162.082 9.608 161.962 11.6H166.408V11.492Z" fill="white"/>
<path d="M9.39456 4.598L9.21455 6.056H5.77656V17H4.06655V6.056H0.538555V4.598H9.39456ZM14.8545 7.298C15.1905 7.298 15.5025 7.334 15.7905 7.406L15.4845 9.026C15.1965 8.954 14.9205 8.918 14.6565 8.918C14.0685 8.918 13.5945 9.134 13.2345 9.566C12.8745 9.998 12.5925 10.67 12.3885 11.582V17H10.7325V7.514H12.1545L12.3165 9.44C12.5685 8.732 12.9105 8.198 13.3425 7.838C13.7745 7.478 14.2785 7.298 14.8545 7.298ZM23.433 14.786C23.433 15.17 23.499 15.458 23.631 15.65C23.763 15.83 23.961 15.968 24.225 16.064L23.847 17.216C23.355 17.156 22.959 17.018 22.659 16.802C22.359 16.586 22.137 16.25 21.993 15.794C21.357 16.742 20.415 17.216 19.167 17.216C18.231 17.216 17.493 16.952 16.953 16.424C16.413 15.896 16.143 15.206 16.143 14.354C16.143 13.346 16.503 12.572 17.223 12.032C17.955 11.492 18.987 11.222 20.319 11.222H21.777V10.52C21.777 9.848 21.615 9.368 21.291 9.08C20.967 8.792 20.469 8.648 19.797 8.648C19.101 8.648 18.249 8.816 17.241 9.152L16.827 7.946C18.003 7.514 19.095 7.298 20.103 7.298C21.219 7.298 22.053 7.574 22.605 8.126C23.157 8.666 23.433 9.44 23.433 10.448V14.786ZM19.545 15.974C20.493 15.974 21.237 15.482 21.777 14.498V12.32H20.535C18.783 12.32 17.907 12.968 17.907 14.264C17.907 14.828 18.045 15.254 18.321 15.542C18.597 15.83 19.005 15.974 19.545 15.974ZM33.5364 7.514L30.3144 17H28.3164L25.0404 7.514H26.8404L29.3244 15.524L31.7904 7.514H33.5364ZM42.5234 11.978C42.5234 12.254 42.5114 12.536 42.4874 12.824H36.4394C36.5114 13.868 36.7754 14.636 37.2314 15.128C37.6874 15.62 38.2754 15.866 38.9954 15.866C39.4514 15.866 39.8714 15.8 40.2554 15.668C40.6394 15.536 41.0414 15.326 41.4614 15.038L42.1814 16.028C41.1734 16.82 40.0694 17.216 38.8694 17.216C37.5494 17.216 36.5174 16.784 35.7734 15.92C35.0414 15.056 34.6754 13.868 34.6754 12.356C34.6754 11.372 34.8314 10.502 35.1434 9.746C35.4674 8.978 35.9234 8.378 36.5114 7.946C37.1114 7.514 37.8134 7.298 38.6174 7.298C39.8774 7.298 40.8434 7.712 41.5154 8.54C42.1874 9.368 42.5234 10.514 42.5234 11.978ZM40.8854 11.492C40.8854 10.556 40.6994 9.842 40.3274 9.35C39.9554 8.858 39.3974 8.612 38.6534 8.612C37.2974 8.612 36.5594 9.608 36.4394 11.6H40.8854V11.492ZM47.058 17.216C46.446 17.216 45.96 17.036 45.6 16.676C45.252 16.304 45.078 15.788 45.078 15.128V3.698L46.734 3.5V15.092C46.734 15.356 46.776 15.548 46.86 15.668C46.956 15.788 47.112 15.848 47.328 15.848C47.556 15.848 47.76 15.812 47.94 15.74L48.372 16.892C47.976 17.108 47.538 17.216 47.058 17.216Z" fill="white"/>
</svg>
