<svg width="156" height="11" viewBox="0 0 156 11" fill="none" xmlns="http://www.w3.org/2000/svg">
<path d="M9.66002 9.88397H7.85402L7.60202 5.83797C7.51802 4.39131 7.47602 3.24331 7.47602 2.39397V1.88997L5.71202 8.83397H3.96202L2.08602 1.87597C2.10468 2.49197 2.11402 2.95864 2.11402 3.27597C2.11402 4.12531 2.08602 4.99797 2.03002 5.89397L1.79202 9.88397H1.81198e-05L0.770018 0.209972H3.15002L4.87202 6.98597L6.49602 0.209972H8.90402L9.66002 9.88397ZM17.2892 0.209972V9.88397H15.4412V0.209972H17.2892ZM30.6964 9.88397H28.3024L24.9844 2.05797C25.0684 2.74864 25.1291 3.37397 25.1664 3.93397C25.2131 4.49397 25.2364 5.16131 25.2364 5.93597V9.88397H23.5564V0.209972H25.8944L29.2684 8.04997C29.2124 7.67664 29.1564 7.18664 29.1004 6.57997C29.0444 5.96397 29.0164 5.35264 29.0164 4.74597V0.209972H30.6964V9.88397ZM38.8107 0.209972V9.88397H36.9627V0.209972H38.8107ZM54.2479 9.88397H52.4419L52.1899 5.83797C52.1059 4.39131 52.0639 3.24331 52.0639 2.39397V1.88997L50.2999 8.83397H48.5499L46.6739 1.87597C46.6926 2.49197 46.7019 2.95864 46.7019 3.27597C46.7019 4.12531 46.6739 4.99797 46.6179 5.89397L46.3799 9.88397H44.5879L45.3579 0.209972H47.7379L49.4599 6.98597L51.0839 0.209972H53.4919L54.2479 9.88397ZM65.1531 9.88397L64.5511 7.64397H61.3451L60.7431 9.88397H58.8251L61.8351 0.209972H64.1171L67.1131 9.88397H65.1531ZM61.7091 6.24397H64.1731L62.9411 1.62397L61.7091 6.24397ZM74.0392 0.209972V8.37197H77.9172L77.7072 9.88397H72.1912V0.209972H74.0392ZM93.1532 0.209972C94.6559 0.209972 95.8552 0.550638 96.7512 1.23197C97.6566 1.91331 98.1092 3.16864 98.1092 4.99797C98.1092 6.78997 97.6659 8.05464 96.7792 8.79197C95.8926 9.51997 94.7679 9.88397 93.4052 9.88397H90.7732V0.209972H93.1532ZM92.6212 1.59597V8.49797H93.5312C94.3526 8.49797 94.9966 8.24597 95.4632 7.74197C95.9299 7.22864 96.1632 6.31397 96.1632 4.99797C96.1632 4.08331 96.0419 3.37864 95.7992 2.88397C95.5659 2.37997 95.2532 2.03931 94.8612 1.86197C94.4786 1.68464 94.0166 1.59597 93.4752 1.59597H92.6212ZM109.465 0.209972L109.269 1.58197H105.699V4.28397H108.807V5.65597H105.699V8.49797H109.521V9.88397H103.851V0.209972H109.465ZM117.924 -2.82526e-05C118.606 -2.82526e-05 119.198 0.0979716 119.702 0.293971C120.206 0.489972 120.678 0.788638 121.116 1.18997L120.206 2.23997C119.861 1.95064 119.511 1.74064 119.156 1.60997C118.811 1.47931 118.438 1.41397 118.036 1.41397C117.588 1.41397 117.224 1.51664 116.944 1.72197C116.674 1.91797 116.538 2.19797 116.538 2.56197C116.538 2.80464 116.59 3.00531 116.692 3.16397C116.804 3.32264 117 3.47197 117.28 3.61197C117.56 3.75197 117.976 3.90597 118.526 4.07397C119.478 4.37264 120.192 4.74597 120.668 5.19397C121.154 5.63264 121.396 6.27664 121.396 7.12597C121.396 7.70464 121.247 8.21797 120.948 8.66597C120.659 9.11397 120.239 9.46397 119.688 9.71597C119.138 9.96797 118.484 10.094 117.728 10.094C116.991 10.094 116.328 9.97731 115.74 9.74397C115.162 9.50131 114.662 9.17464 114.242 8.76397L115.194 7.69997C115.568 8.01731 115.955 8.25997 116.356 8.42797C116.758 8.58664 117.201 8.66597 117.686 8.66597C118.218 8.66597 118.648 8.53997 118.974 8.28797C119.301 8.03597 119.464 7.68131 119.464 7.22397C119.464 6.94397 119.408 6.71531 119.296 6.53797C119.184 6.35131 118.993 6.18797 118.722 6.04797C118.452 5.89864 118.06 5.74464 117.546 5.58597C116.52 5.26864 115.778 4.88597 115.32 4.43797C114.863 3.98997 114.634 3.40197 114.634 2.67397C114.634 2.14197 114.774 1.67531 115.054 1.27397C115.334 0.872638 115.722 0.559971 116.216 0.335972C116.72 0.111972 117.29 -2.82526e-05 117.924 -2.82526e-05ZM128.82 0.209972V9.88397H126.972V0.209972H128.82ZM138.994 -2.82526e-05C139.628 -2.82526e-05 140.188 0.0979716 140.674 0.293971C141.168 0.480638 141.635 0.760639 142.074 1.13397L141.08 2.16997C140.734 1.89931 140.408 1.7033 140.1 1.58197C139.801 1.46064 139.451 1.39997 139.05 1.39997C138.303 1.39997 137.692 1.69864 137.216 2.29597C136.74 2.89331 136.502 3.80797 136.502 5.03997C136.502 6.32797 136.688 7.25664 137.062 7.82597C137.444 8.39531 138.023 8.67997 138.798 8.67997C139.386 8.67997 139.899 8.55397 140.338 8.30197V5.78197H138.882L138.686 4.40997H142.158V9.14197C141.112 9.77664 140.002 10.094 138.826 10.094C137.444 10.094 136.385 9.66464 135.648 8.80597C134.92 7.94731 134.556 6.69197 134.556 5.03997C134.556 3.98531 134.752 3.07997 135.144 2.32397C135.545 1.55864 136.082 0.979972 136.754 0.587972C137.426 0.195972 138.172 -2.82526e-05 138.994 -2.82526e-05ZM155.155 9.88397H152.761L149.443 2.05797C149.527 2.74864 149.588 3.37397 149.625 3.93397C149.672 4.49397 149.695 5.16131 149.695 5.93597V9.88397H148.015V0.209972H150.353L153.727 8.04997C153.671 7.67664 153.615 7.18664 153.559 6.57997C153.503 5.96397 153.475 5.35264 153.475 4.74597V0.209972H155.155V9.88397Z" fill="black"/>
</svg>
