<svg width="1111" height="62" viewBox="0 0 1111 62" fill="none" xmlns="http://www.w3.org/2000/svg">
<g opacity="0.4">
<path fill-rule="evenodd" clip-rule="evenodd" d="M85.8751 48.6027H79.1479C79.1479 49.3023 79.1479 50.7015 79.1436 51.4011H83.0418C82.8925 52.1007 82.3628 53.0802 81.6145 53.5734C81.6138 53.5727 81.6131 53.5776 81.6116 53.5769C80.6167 54.2338 79.3037 54.3829 78.3288 54.187C76.8007 53.8833 75.5913 52.7752 75.1003 51.3675C75.1032 51.3654 75.1053 51.3459 75.1075 51.3445C74.8001 50.4714 74.8001 49.3023 75.1075 48.6027H75.1067C75.5027 47.3168 76.7485 46.1436 78.2788 45.8225C79.5096 45.5615 80.8983 45.8442 81.9197 46.7998C82.0555 46.6669 83.7995 44.9641 83.9303 44.8255C80.4409 41.6654 74.8537 42.7771 72.7631 46.8579H72.7624C72.7624 46.8579 72.7631 46.8579 72.7588 46.8656C71.7246 48.87 71.7675 51.2318 72.766 53.1404C72.7631 53.1425 72.761 53.1438 72.7588 53.1459C73.6637 54.902 75.3105 56.2487 77.2946 56.7615C79.4024 57.3142 82.0848 56.9364 83.8817 55.3112C83.8824 55.3119 83.8831 55.3126 83.8838 55.3133C85.4062 53.9421 86.354 51.6061 85.8751 48.6027Z" fill="white"/>
<path fill-rule="evenodd" clip-rule="evenodd" d="M55 57H51.9231V51.3967C51.9231 49.8596 51.2715 49.0022 50.1031 49.0022C48.8315 49.0022 48.0769 49.8956 48.0769 51.3967V57H45V46.5924H48.0769V47.7629C48.0769 47.7629 49.0423 46 51.2177 46C53.3938 46 55 47.3818 55 50.2415C55 53.1004 55 57 55 57ZM40.5003 44C39.6715 44 39 43.3282 39 42.4997C39 41.6718 39.6715 41 40.5003 41C41.3285 41 42 41.6718 42 42.4997C42.0006 43.3282 41.3285 44 40.5003 44ZM39 57H42V47H39V57Z" fill="white"/>
<path fill-rule="evenodd" clip-rule="evenodd" d="M9.032 57C15.0696 57 18.372 51.6132 18.372 46.9423C18.372 46.7889 18.372 46.6365 18.3624 46.4848C19.0048 45.9852 19.5592 45.3649 20 44.6551C19.4016 44.9411 18.7656 45.1289 18.1152 45.2116C18.8 44.7696 19.3128 44.0753 19.5584 43.256C18.9136 43.6678 18.2088 43.9581 17.4736 44.1141C16.2304 42.6909 14.1512 42.622 12.8288 43.9607C11.9768 44.8239 11.6144 46.111 11.8792 47.3386C9.24 47.1956 6.7808 45.8534 5.1136 43.6454C4.2424 45.2607 4.688 47.3265 6.1304 48.3637C5.608 48.3473 5.0968 48.1957 4.64 47.9218V47.9666C4.6408 49.649 5.7424 51.098 7.2736 51.4314C6.7904 51.5736 6.2832 51.5942 5.792 51.4917C6.2216 52.9321 7.4544 53.9185 8.8584 53.9469C7.696 54.9307 6.26 55.4649 4.7816 55.4631C4.5208 55.4623 4.26 55.4459 4 55.4123C5.5016 56.4495 7.248 57 9.032 56.9974" fill="white"/>
<path fill-rule="evenodd" clip-rule="evenodd" d="M109.457 57V50.25H111.643L112 47.25H109.457V45.789C109.457 45.0165 109.478 44.25 110.63 44.25H111.796V42.105C111.796 42.0728 110.794 42 109.781 42C107.664 42 106.339 43.2428 106.339 45.525V47.25H104V50.25H106.339V57H109.457Z" fill="white"/>
</g>
<rect opacity="0.2" x="3.25" y="0.25" width="1107.5" height="0.5" stroke="white" stroke-width="0.5"/>
</svg>
