<svg width="471" height="19" viewBox="0 0 471 19" fill="none" xmlns="http://www.w3.org/2000/svg">
<path d="M6.32801 13L5.72601 10.76H2.52001L1.91801 13H7.31926e-06L3.01001 3.326H5.29201L8.28801 13H6.32801ZM2.88401 9.36H5.34801L4.11601 4.74L2.88401 9.36ZM15.2141 3.326V11.488H19.0921L18.8821 13H13.3661V3.326H15.2141ZM26.2961 3.326V11.488H30.1741L29.9641 13H24.4481V3.326H26.2961Z" fill="#1434E1"/>
<path opacity="0.3" d="M68.95 7.876C69.6127 7.99733 70.1447 8.23533 70.546 8.59C70.9567 8.94467 71.162 9.486 71.162 10.214C71.162 11.222 70.8073 11.9407 70.098 12.37C69.3887 12.79 68.3947 13 67.116 13H64.204V3.326H66.738C69.4073 3.326 70.742 4.14733 70.742 5.79C70.742 6.35933 70.5693 6.826 70.224 7.19C69.8787 7.54467 69.454 7.77333 68.95 7.876ZM66.052 4.684V7.302H67.186C67.6993 7.302 68.1053 7.19 68.404 6.966C68.7027 6.73267 68.852 6.392 68.852 5.944C68.852 5.47733 68.6933 5.15067 68.376 4.964C68.068 4.77733 67.5827 4.684 66.92 4.684H66.052ZM67.13 11.614C67.8113 11.614 68.3293 11.5113 68.684 11.306C69.048 11.1007 69.23 10.7133 69.23 10.144C69.23 9.59333 69.0573 9.19667 68.712 8.954C68.376 8.71133 67.914 8.59 67.326 8.59H66.052V11.614H67.13ZM79.8139 9.122H78.6379V13H76.7899V3.326H79.6739C82.2313 3.326 83.5099 4.27333 83.5099 6.168C83.5099 6.812 83.3513 7.344 83.0339 7.764C82.7166 8.184 82.2219 8.52467 81.5499 8.786L84.0839 13H81.9559L79.8139 9.122ZM78.6379 7.792H79.7859C80.3739 7.792 80.8173 7.666 81.1159 7.414C81.4239 7.15267 81.5779 6.73733 81.5779 6.168C81.5779 5.64533 81.4193 5.26733 81.1019 5.034C80.7939 4.79133 80.3039 4.67 79.6319 4.67H78.6379V7.792ZM94.4725 13L93.8705 10.76H90.6645L90.0625 13H88.1445L91.1545 3.326H93.4365L96.4325 13H94.4725ZM91.0285 9.36H93.4925L92.2605 4.74L91.0285 9.36ZM108.651 13H106.257L102.939 5.174C103.023 5.86467 103.083 6.49 103.121 7.05C103.167 7.61 103.191 8.27733 103.191 9.052V13H101.511V3.326H103.849L107.223 11.166C107.167 10.7927 107.111 10.3027 107.055 9.696C106.999 9.08 106.971 8.46867 106.971 7.862V3.326H108.651V13ZM117.297 3.326C118.8 3.326 119.999 3.66667 120.895 4.348C121.8 5.02933 122.253 6.28467 122.253 8.114C122.253 9.906 121.81 11.1707 120.923 11.908C120.036 12.636 118.912 13 117.549 13H114.917V3.326H117.297ZM116.765 4.712V11.614H117.675C118.496 11.614 119.14 11.362 119.607 10.858C120.074 10.3447 120.307 9.43 120.307 8.114C120.307 7.19933 120.186 6.49467 119.943 6C119.71 5.496 119.397 5.15533 119.005 4.978C118.622 4.80067 118.16 4.712 117.619 4.712H116.765ZM129.843 3.326V13H127.995V3.326H129.843ZM143.25 13H140.856L137.538 5.174C137.622 5.86467 137.683 6.49 137.72 7.05C137.767 7.61 137.79 8.27733 137.79 9.052V13H136.11V3.326H138.448L141.822 11.166C141.766 10.7927 141.71 10.3027 141.654 9.696C141.598 9.08 141.57 8.46867 141.57 7.862V3.326H143.25V13ZM153.423 3.116C154.057 3.116 154.617 3.214 155.103 3.41C155.597 3.59667 156.064 3.87667 156.503 4.25L155.509 5.286C155.163 5.01533 154.837 4.81933 154.529 4.698C154.23 4.57667 153.88 4.516 153.479 4.516C152.732 4.516 152.121 4.81467 151.645 5.412C151.169 6.00933 150.931 6.924 150.931 8.156C150.931 9.444 151.117 10.3727 151.491 10.942C151.873 11.5113 152.452 11.796 153.227 11.796C153.815 11.796 154.328 11.67 154.767 11.418V8.898H153.311L153.115 7.526H156.587V12.258C155.541 12.8927 154.431 13.21 153.255 13.21C151.873 13.21 150.814 12.7807 150.077 11.922C149.349 11.0633 148.985 9.808 148.985 8.156C148.985 7.10133 149.181 6.196 149.573 5.44C149.974 4.67467 150.511 4.096 151.183 3.704C151.855 3.312 152.601 3.116 153.423 3.116Z" fill="#222222"/>
<path opacity="0.3" d="M199.564 3.326L197.786 13H195.378L193.908 5.286L192.396 13H190.058L188.308 3.326H190.142L191.374 11.53L192.956 3.326H194.916L196.47 11.53L197.814 3.326H199.564ZM210.535 3.326L210.339 4.698H206.769V7.4H209.877V8.772H206.769V11.614H210.591V13H204.921V3.326H210.535ZM221.091 7.876C221.753 7.99733 222.285 8.23533 222.687 8.59C223.097 8.94467 223.303 9.486 223.303 10.214C223.303 11.222 222.948 11.9407 222.239 12.37C221.529 12.79 220.535 13 219.257 13H216.345V3.326H218.879C221.548 3.326 222.883 4.14733 222.883 5.79C222.883 6.35933 222.71 6.826 222.365 7.19C222.019 7.54467 221.595 7.77333 221.091 7.876ZM218.193 4.684V7.302H219.327C219.84 7.302 220.246 7.19 220.545 6.966C220.843 6.73267 220.993 6.392 220.993 5.944C220.993 5.47733 220.834 5.15067 220.517 4.964C220.209 4.77733 219.723 4.684 219.061 4.684H218.193ZM219.271 11.614C219.952 11.614 220.47 11.5113 220.825 11.306C221.189 11.1007 221.371 10.7133 221.371 10.144C221.371 9.59333 221.198 9.19667 220.853 8.954C220.517 8.71133 220.055 8.59 219.467 8.59H218.193V11.614H219.271Z" fill="#222222"/>
<path opacity="0.3" d="M256.584 3.326C258.087 3.326 259.286 3.66667 260.182 4.348C261.087 5.02933 261.54 6.28467 261.54 8.114C261.54 9.906 261.097 11.1707 260.21 11.908C259.323 12.636 258.199 13 256.836 13H254.204V3.326H256.584ZM256.052 4.712V11.614H256.962C257.783 11.614 258.427 11.362 258.894 10.858C259.361 10.3447 259.594 9.43 259.594 8.114C259.594 7.19933 259.473 6.49467 259.23 6C258.997 5.496 258.684 5.15533 258.292 4.978C257.909 4.80067 257.447 4.712 256.906 4.712H256.052ZM272.896 3.326L272.7 4.698H269.13V7.4H272.238V8.772H269.13V11.614H272.952V13H267.282V3.326H272.896ZM285.524 3.326L282.654 13H280.456L277.502 3.326H279.49L281.59 11.362L283.634 3.326H285.524ZM296.222 3.326L296.026 4.698H292.456V7.4H295.564V8.772H292.456V11.614H296.278V13H290.608V3.326H296.222ZM303.88 3.326V11.488H307.758L307.548 13H302.032V3.326H303.88ZM316.223 3.116C317.091 3.116 317.842 3.312 318.477 3.704C319.111 4.096 319.597 4.67 319.933 5.426C320.278 6.182 320.451 7.092 320.451 8.156C320.451 9.21067 320.278 10.116 319.933 10.872C319.587 11.628 319.097 12.2067 318.463 12.608C317.828 13.0093 317.081 13.21 316.223 13.21C315.355 13.21 314.603 13.014 313.969 12.622C313.334 12.23 312.844 11.656 312.499 10.9C312.153 10.144 311.981 9.234 311.981 8.17C311.981 7.12467 312.153 6.224 312.499 5.468C312.844 4.70267 313.334 4.11933 313.969 3.718C314.613 3.31667 315.364 3.116 316.223 3.116ZM316.223 4.53C315.476 4.53 314.907 4.824 314.515 5.412C314.123 5.99067 313.927 6.91 313.927 8.17C313.927 10.5873 314.692 11.796 316.223 11.796C316.969 11.796 317.534 11.5067 317.917 10.928C318.309 10.3493 318.505 9.42533 318.505 8.156C318.505 6.896 318.309 5.97667 317.917 5.398C317.534 4.81933 316.969 4.53 316.223 4.53ZM329.048 3.326C330.29 3.326 331.251 3.58267 331.932 4.096C332.623 4.60933 332.968 5.37933 332.968 6.406C332.968 7.47933 332.623 8.28667 331.932 8.828C331.242 9.36 330.322 9.626 329.174 9.626H328.04V13H326.192V3.326H329.048ZM329.034 8.24C329.697 8.24 330.196 8.10467 330.532 7.834C330.868 7.554 331.036 7.078 331.036 6.406C331.036 5.258 330.369 4.684 329.034 4.684H328.04V8.24H329.034ZM347.21 13H345.404L345.152 8.954C345.068 7.50733 345.026 6.35933 345.026 5.51V5.006L343.262 11.95H341.512L339.636 4.992C339.655 5.608 339.664 6.07467 339.664 6.392C339.664 7.24133 339.636 8.114 339.58 9.01L339.342 13H337.55L338.32 3.326H340.7L342.422 10.102L344.046 3.326H346.454L347.21 13ZM358.605 3.326L358.409 4.698H354.839V7.4H357.947V8.772H354.839V11.614H358.661V13H352.991V3.326H358.605ZM371.555 13H369.161L365.843 5.174C365.927 5.86467 365.988 6.49 366.025 7.05C366.072 7.61 366.095 8.27733 366.095 9.052V13H364.415V3.326H366.753L370.127 11.166C370.071 10.7927 370.015 10.3027 369.959 9.696C369.903 9.08 369.875 8.46867 369.875 7.862V3.326H371.555V13ZM384.037 3.326L383.841 4.796H381.321V13H379.459V4.796H376.855V3.326H384.037Z" fill="#222222"/>
<path opacity="0.3" d="M414.204 13V3.326H419.678L419.482 4.698H416.052V7.596H419.034V8.968H416.052V13H414.204ZM426.902 3.326V13H425.054V3.326H426.902ZM435.017 3.326V11.488H438.895L438.685 13H433.169V3.326H435.017ZM453.284 13H451.478L451.226 8.954C451.142 7.50733 451.1 6.35933 451.1 5.51V5.006L449.336 11.95H447.586L445.71 4.992C445.729 5.608 445.738 6.07467 445.738 6.392C445.738 7.24133 445.71 8.114 445.654 9.01L445.416 13H443.624L444.394 3.326H446.774L448.496 10.102L450.12 3.326H452.528L453.284 13ZM461.646 3.116C462.328 3.116 462.92 3.214 463.424 3.41C463.928 3.606 464.4 3.90467 464.838 4.306L463.928 5.356C463.583 5.06667 463.233 4.85667 462.878 4.726C462.533 4.59533 462.16 4.53 461.758 4.53C461.31 4.53 460.946 4.63267 460.666 4.838C460.396 5.034 460.26 5.314 460.26 5.678C460.26 5.92067 460.312 6.12133 460.414 6.28C460.526 6.43867 460.722 6.588 461.002 6.728C461.282 6.868 461.698 7.022 462.248 7.19C463.2 7.48867 463.914 7.862 464.39 8.31C464.876 8.74867 465.118 9.39267 465.118 10.242C465.118 10.8207 464.969 11.334 464.67 11.782C464.381 12.23 463.961 12.58 463.41 12.832C462.86 13.084 462.206 13.21 461.45 13.21C460.713 13.21 460.05 13.0933 459.462 12.86C458.884 12.6173 458.384 12.2907 457.964 11.88L458.916 10.816C459.29 11.1333 459.677 11.376 460.078 11.544C460.48 11.7027 460.923 11.782 461.408 11.782C461.94 11.782 462.37 11.656 462.696 11.404C463.023 11.152 463.186 10.7973 463.186 10.34C463.186 10.06 463.13 9.83133 463.018 9.654C462.906 9.46733 462.715 9.304 462.444 9.164C462.174 9.01467 461.782 8.86067 461.268 8.702C460.242 8.38467 459.5 8.002 459.042 7.554C458.585 7.106 458.356 6.518 458.356 5.79C458.356 5.258 458.496 4.79133 458.776 4.39C459.056 3.98867 459.444 3.676 459.938 3.452C460.442 3.228 461.012 3.116 461.646 3.116Z" fill="#222222"/>
</svg>
