<svg width="165" height="11" viewBox="0 0 165 11" fill="none" xmlns="http://www.w3.org/2000/svg">
<path d="M7.19598 6.71997C7.19598 7.37331 7.05598 7.95664 6.77598 8.46997C6.50532 8.97397 6.09465 9.37064 5.54398 9.65997C5.00265 9.94931 4.34931 10.094 3.58398 10.094C2.42665 10.094 1.53998 9.79064 0.923982 9.18397C0.307982 8.56797 -1.85221e-05 7.74664 -1.85221e-05 6.71997V0.209972H1.84798V6.62197C1.84798 7.30331 1.98798 7.81197 2.26798 8.14797C2.55731 8.48397 2.99598 8.65197 3.58398 8.65197C4.18132 8.65197 4.61998 8.48397 4.89998 8.14797C5.18932 7.81197 5.33398 7.30331 5.33398 6.62197V0.209972H7.19598V6.71997ZM15.1755 0.209972V8.37197H19.0535L18.8435 9.88397H13.3275V0.209972H15.1755ZM29.3814 0.209972L29.1854 1.67997H26.6654V9.88397H24.8034V1.67997H22.1994V0.209972H29.3814ZM36.4372 0.209972V9.88397H34.5892V0.209972H36.4372ZM51.8744 9.88397H50.0684L49.8164 5.83797C49.7324 4.39131 49.6904 3.24331 49.6904 2.39397V1.88997L47.9264 8.83397H46.1764L44.3004 1.87597C44.3191 2.49197 44.3284 2.95864 44.3284 3.27597C44.3284 4.12531 44.3004 4.99797 44.2444 5.89397L44.0064 9.88397H42.2144L42.9844 0.209972H45.3644L47.0864 6.98597L48.7104 0.209972H51.1184L51.8744 9.88397ZM62.7796 9.88397L62.1776 7.64397H58.9716L58.3696 9.88397H56.4516L59.4616 0.209972H61.7436L64.7396 9.88397H62.7796ZM59.3356 6.24397H61.7996L60.5676 1.62397L59.3356 6.24397ZM75.3365 0.209972L75.1405 1.67997H72.6205V9.88397H70.7585V1.67997H68.1545V0.209972H75.3365ZM86.1583 0.209972L85.9623 1.58197H82.3923V4.28397H85.5003V5.65597H82.3923V8.49797H86.2143V9.88397H80.5443V0.209972H86.1583ZM102.492 6.00597H101.316V9.88397H99.4681V0.209972H102.352C104.909 0.209972 106.188 1.1573 106.188 3.05197C106.188 3.69597 106.029 4.22797 105.712 4.64797C105.395 5.06797 104.9 5.40864 104.228 5.66997L106.762 9.88397H104.634L102.492 6.00597ZM101.316 4.67597H102.464C103.052 4.67597 103.495 4.54997 103.794 4.29797C104.102 4.03664 104.256 3.62131 104.256 3.05197C104.256 2.52931 104.097 2.15131 103.78 1.91797C103.472 1.67531 102.982 1.55397 102.31 1.55397H101.316V4.67597ZM117.641 0.209972L117.445 1.58197H113.875V4.28397H116.983V5.65597H113.875V8.49797H117.697V9.88397H112.027V0.209972H117.641ZM126.1 -2.82526e-05C126.781 -2.82526e-05 127.374 0.0979716 127.878 0.293971C128.382 0.489972 128.853 0.788638 129.292 1.18997L128.382 2.23997C128.036 1.95064 127.686 1.74064 127.332 1.60997C126.986 1.47931 126.613 1.41397 126.212 1.41397C125.764 1.41397 125.4 1.51664 125.12 1.72197C124.849 1.91797 124.714 2.19797 124.714 2.56197C124.714 2.80464 124.765 3.00531 124.868 3.16397C124.98 3.32264 125.176 3.47197 125.456 3.61197C125.736 3.75197 126.151 3.90597 126.702 4.07397C127.654 4.37264 128.368 4.74597 128.844 5.19397C129.329 5.63264 129.572 6.27664 129.572 7.12597C129.572 7.70464 129.422 8.21797 129.124 8.66597C128.834 9.11397 128.414 9.46397 127.864 9.71597C127.313 9.96797 126.66 10.094 125.904 10.094C125.166 10.094 124.504 9.97731 123.916 9.74397C123.337 9.50131 122.838 9.17464 122.418 8.76397L123.37 7.69997C123.743 8.01731 124.13 8.25997 124.532 8.42797C124.933 8.58664 125.376 8.66597 125.862 8.66597C126.394 8.66597 126.823 8.53997 127.15 8.28797C127.476 8.03597 127.64 7.68131 127.64 7.22397C127.64 6.94397 127.584 6.71531 127.472 6.53797C127.36 6.35131 127.168 6.18797 126.898 6.04797C126.627 5.89864 126.235 5.74464 125.722 5.58597C124.695 5.26864 123.953 4.88597 123.496 4.43797C123.038 3.98997 122.81 3.40197 122.81 2.67397C122.81 2.14197 122.95 1.67531 123.23 1.27397C123.51 0.872638 123.897 0.559971 124.392 0.335972C124.896 0.111972 125.465 -2.82526e-05 126.1 -2.82526e-05ZM142.204 6.71997C142.204 7.37331 142.064 7.95664 141.784 8.46997C141.513 8.97397 141.102 9.37064 140.552 9.65997C140.01 9.94931 139.357 10.094 138.592 10.094C137.434 10.094 136.548 9.79064 135.932 9.18397C135.316 8.56797 135.008 7.74664 135.008 6.71997V0.209972H136.856V6.62197C136.856 7.30331 136.996 7.81197 137.276 8.14797C137.565 8.48397 138.004 8.65197 138.592 8.65197C139.189 8.65197 139.628 8.48397 139.908 8.14797C140.197 7.81197 140.342 7.30331 140.342 6.62197V0.209972H142.204V6.71997ZM150.183 0.209972V8.37197H154.061L153.851 9.88397H148.335V0.209972H150.183ZM164.389 0.209972L164.193 1.67997H161.673V9.88397H159.811V1.67997H157.207V0.209972H164.389Z" fill="black"/>
</svg>
